<svg width="120" height="120" viewBox="0 0 120 120" fill="none" xmlns="http://www.w3.org/2000/svg">
<path fill-rule="evenodd" clip-rule="evenodd" d="M88.5 114C87.6729 114 87 113.327 87 112.5C87 111.672 87.6729 111 88.5 111C89.3271 111 90 111.672 90 112.5C90 113.327 89.3271 114 88.5 114Z" fill="#ECECFE"/>
<path fill-rule="evenodd" clip-rule="evenodd" d="M100.5 17.9995C99.6729 17.9995 99 17.3266 99 16.4995C99 15.6723 99.6729 14.9995 100.5 14.9995C101.327 14.9995 102 15.6723 102 16.4995C102 17.3266 101.327 17.9995 100.5 17.9995Z" fill="#ECECFE"/>
<path fill-rule="evenodd" clip-rule="evenodd" d="M13.5 23.9995C12.6729 23.9995 12 23.3266 12 22.4995C12 21.6723 12.6729 20.9995 13.5 20.9995C14.3271 20.9995 15 21.6723 15 22.4995C15 23.3266 14.3271 23.9995 13.5 23.9995Z" fill="#ECECFE"/>
<path d="M55.5 34.4995C55.5 33.6711 54.8284 32.9995 54 32.9995H36L35.8251 33.0096C35.0791 33.0963 34.5 33.7303 34.5 34.4995C34.5 35.3279 35.1716 35.9995 36 35.9995H54L54.1749 35.9894C54.9209 35.9028 55.5 35.2688 55.5 34.4995Z" fill="#E1000F"/>
<path d="M58.5 59.9995C56.8431 59.9995 55.5 61.3427 55.5 62.9995C55.5 66.7301 57.013 68.9995 60 68.9995C60.8284 68.9995 61.5 68.3279 61.5 67.4995C61.5 66.6711 60.8284 65.9995 60 65.9995L59.8589 65.9945C59.6798 65.9812 59.5189 65.9413 59.3758 65.8697C60.6054 65.4949 61.5 64.3517 61.5 62.9995C61.5 61.3427 60.1569 59.9995 58.5 59.9995Z" fill="#E1000F"/>
<path d="M64.5 62.9995C64.5 61.3427 65.8431 59.9995 67.5 59.9995C69.1569 59.9995 70.5 61.3427 70.5 62.9995C70.5 64.3517 69.6054 65.4949 68.3758 65.8697C68.5189 65.9413 68.6798 65.9812 68.8589 65.9945L69 65.9995C69.8284 65.9995 70.5 66.6711 70.5 67.4995C70.5 68.3279 69.8284 68.9995 69 68.9995C66.013 68.9995 64.5 66.7301 64.5 62.9995Z" fill="#E1000F"/>
<path d="M51 38.9995C51.8284 38.9995 52.5 39.6711 52.5 40.4995C52.5 41.2688 51.9209 41.9028 51.1749 41.9894L51 41.9995H36C35.1716 41.9995 34.5 41.3279 34.5 40.4995C34.5 39.7303 35.0791 39.0963 35.8251 39.0096L36 38.9995H51Z" fill="#E1000F"/>
<path d="M46.5 46.4995C46.5 45.6711 45.8284 44.9995 45 44.9995H36L35.8251 45.0096C35.0791 45.0963 34.5 45.7303 34.5 46.4995C34.5 47.3279 35.1716 47.9995 36 47.9995H45L45.1749 47.9894C45.9209 47.9028 46.5 47.2688 46.5 46.4995Z" fill="#E1000F"/>
<path d="M84 74.9995C84.8284 74.9995 85.5 75.6711 85.5 76.4995C85.5 77.2688 84.9209 77.9028 84.1749 77.9894L84 77.9995H57C56.1716 77.9995 55.5 77.3279 55.5 76.4995C55.5 75.7303 56.0791 75.0963 56.8251 75.0096L57 74.9995H84Z" fill="#E1000F"/>
<path d="M79.5 82.4995C79.5 81.6711 78.8284 80.9995 78 80.9995H57L56.8251 81.0096C56.0791 81.0962 55.5 81.7303 55.5 82.4995C55.5 83.3279 56.1716 83.9995 57 83.9995H78L78.1749 83.9894C78.9209 83.9028 79.5 83.2688 79.5 82.4995Z" fill="#E1000F"/>
<path d="M48 17.9995C58.2811 17.9995 66.4319 24.0852 70.3918 33.9402C70.7007 34.7089 70.328 35.5825 69.5593 35.8914C68.7906 36.2002 67.917 35.8275 67.6082 35.0588C64.0857 26.2926 56.9965 20.9995 48 20.9995C35.5736 20.9995 25.5 31.0731 25.5 43.4995C25.5 48.3233 27.0199 52.9139 29.7986 56.7296C30.1509 57.2134 30.1787 57.8539 29.8857 58.3618L29.7761 58.5257L24.0405 65.9995H33C33.7693 65.9995 34.4033 66.5786 34.4899 67.3246L34.5 67.4995C34.5 68.2688 33.9209 68.9028 33.1749 68.9894L33 68.9995H21C19.8129 68.9995 19.1179 67.6998 19.7157 66.7235L19.8099 66.5864L26.73 57.5665L26.6452 57.4411C24.0762 53.5146 22.6292 48.9431 22.5083 44.1539L22.5 43.4995C22.5 29.4163 33.9167 17.9995 48 17.9995Z" fill="#000091"/>
<path d="M70.5 41.9995C87.0685 41.9995 100.5 55.431 100.5 71.9995C100.5 76.6955 99.419 81.2402 97.3706 85.3542C97.0013 86.0958 96.1008 86.3977 95.3593 86.0284C94.6177 85.6592 94.3158 84.7587 94.6851 84.0171C96.5278 80.3161 97.5 76.2288 97.5 71.9995C97.5 57.0878 85.4117 44.9995 70.5 44.9995C55.5883 44.9995 43.5 57.0878 43.5 71.9995C43.5 86.7455 55.3212 98.7305 70.004 98.995L70.5 98.9995H96.1965L91.7519 92.3316C91.3252 91.6915 91.4553 90.8428 92.028 90.3569L92.168 90.2514C92.808 89.8247 93.6567 89.9549 94.1426 90.5275L94.2481 90.6675L100.248 99.6675C100.881 100.617 100.263 101.873 99.1678 101.991L99 102H70.5C53.9315 102 40.5 88.5681 40.5 71.9995C40.5 55.431 53.9315 41.9995 70.5 41.9995Z" fill="#000091"/>
<path d="M82.5 28.4995C82.5 29.3266 83.1729 29.9995 84 29.9995C84.8271 29.9995 85.5 29.3266 85.5 28.4995C85.5 27.6723 84.8271 26.9995 84 26.9995C83.1729 26.9995 82.5 27.6723 82.5 28.4995Z" fill="#000091"/>
<path d="M90 29.9995C89.1729 29.9995 88.5 29.3266 88.5 28.4995C88.5 27.6723 89.1729 26.9995 90 26.9995C90.8271 26.9995 91.5 27.6723 91.5 28.4995C91.5 29.3266 90.8271 29.9995 90 29.9995Z" fill="#000091"/>
<path d="M94.5 28.4995C94.5 29.3266 95.1729 29.9995 96 29.9995C96.8271 29.9995 97.5 29.3266 97.5 28.4995C97.5 27.6723 96.8271 26.9995 96 26.9995C95.1729 26.9995 94.5 27.6723 94.5 28.4995Z" fill="#000091"/>
<path fill-rule="evenodd" clip-rule="evenodd" d="M102 20.9995H78C77.1716 20.9995 76.5 21.6711 76.5 22.4995V34.4995L76.5101 34.6744C76.5967 35.4205 77.2307 35.9995 78 35.9995H89.3775L94.9393 41.5602L95.0662 41.6743C96.0217 42.4457 97.5 41.7778 97.5 40.4995V35.9995H102C102.828 35.9995 103.5 35.3279 103.5 34.4995V22.4995C103.5 21.6711 102.828 20.9995 102 20.9995ZM100.5 23.9995V32.9995H96L95.8251 33.0096C95.0791 33.0963 94.5 33.7303 94.5 34.4995V36.877L91.0607 33.4389L90.912 33.3086C90.6517 33.1093 90.3315 32.9995 90 32.9995H79.5V23.9995H100.5Z" fill="#000091"/>
<path d="M24 86.9995C24.8284 86.9995 25.5 87.6711 25.5 88.4995C25.5 89.2688 24.9209 89.9028 24.1749 89.9894L24 89.9995H18C17.1716 89.9995 16.5 89.3279 16.5 88.4995C16.5 87.7303 17.0791 87.0963 17.8251 87.0096L18 86.9995H24Z" fill="#000091"/>
<path d="M28.5 88.4995C28.5 89.3266 29.1729 89.9995 30 89.9995C30.8271 89.9995 31.5 89.3266 31.5 88.4995C31.5 87.6723 30.8271 86.9995 30 86.9995C29.1729 86.9995 28.5 87.6723 28.5 88.4995Z" fill="#000091"/>
<path d="M36 89.9995C35.1729 89.9995 34.5 89.3266 34.5 88.4995C34.5 87.6723 35.1729 86.9995 36 86.9995C36.8271 86.9995 37.5 87.6723 37.5 88.4995C37.5 89.3266 36.8271 89.9995 36 89.9995Z" fill="#000091"/>
</svg>
