<svg width="120" height="120" viewBox="0 0 120 120" fill="none" xmlns="http://www.w3.org/2000/svg">
<path fill-rule="evenodd" clip-rule="evenodd" d="M85.5 117C84.6729 117 84 116.327 84 115.5C84 114.672 84.6729 114 85.5 114C86.3271 114 87 114.672 87 115.5C87 116.327 86.3271 117 85.5 117Z" fill="#CACAFB"/>
<path fill-rule="evenodd" clip-rule="evenodd" d="M91.5 8.99951C90.6729 8.99951 90 8.32661 90 7.49951C90 6.67234 90.6729 5.99951 91.5 5.99951C92.3271 5.99951 93 6.67234 93 7.49951C93 8.32661 92.3271 8.99951 91.5 8.99951Z" fill="#CACAFB"/>
<path fill-rule="evenodd" clip-rule="evenodd" d="M40.5 117C39.6729 117 39 116.327 39 115.5C39 114.672 39.6729 114 40.5 114C41.3271 114 42 114.672 42 115.5C42 116.327 41.3271 117 40.5 117Z" fill="#CACAFB"/>
<path d="M67.4899 14.8246C67.4033 14.0786 66.7693 13.4995 66 13.4995C65.1716 13.4995 64.5 14.1711 64.5 14.9995V20.9995L64.5101 21.1744C64.5967 21.9205 65.2307 22.4995 66 22.4995C66.8284 22.4995 67.5 21.8279 67.5 20.9995V14.9995L67.4899 14.8246Z" fill="#E1000F"/>
<path d="M30 52.4995C30 51.6711 29.3284 50.9995 28.5 50.9995H19.5L19.3251 51.0096C18.5791 51.0963 18 51.7303 18 52.4995C18 53.3279 18.6716 53.9995 19.5 53.9995H28.5L28.6749 53.9894C29.4209 53.9028 30 53.2688 30 52.4995Z" fill="#E1000F"/>
<path fill-rule="evenodd" clip-rule="evenodd" d="M60 50.9995C57.5147 50.9995 55.5 53.0142 55.5 55.4995C55.5 57.9848 57.5147 59.9995 60 59.9995C62.4853 59.9995 64.5 57.9848 64.5 55.4995C64.5 53.0142 62.4853 50.9995 60 50.9995ZM60 53.9995C60.8284 53.9995 61.5 54.6711 61.5 55.4995C61.5 56.3279 60.8284 56.9995 60 56.9995C59.1716 56.9995 58.5 56.3279 58.5 55.4995C58.5 54.6711 59.1716 53.9995 60 53.9995Z" fill="#E1000F"/>
<path d="M28.5 56.9995C29.3284 56.9995 30 57.6711 30 58.4995C30 59.2688 29.4209 59.9028 28.6749 59.9894L28.5 59.9995H19.5C18.6716 59.9995 18 59.3279 18 58.4995C18 57.7303 18.5791 57.0963 19.3251 57.0096L19.5 56.9995H28.5Z" fill="#E1000F"/>
<path d="M48 52.4995C48 51.6711 47.3284 50.9995 46.5 50.9995H37.5L37.3251 51.0096C36.5791 51.0963 36 51.7303 36 52.4995C36 53.3279 36.6716 53.9995 37.5 53.9995H46.5L46.6749 53.9894C47.4209 53.9028 48 53.2688 48 52.4995Z" fill="#E1000F"/>
<path d="M46.5 56.9995C47.3284 56.9995 48 57.6711 48 58.4995C48 59.2688 47.4209 59.9028 46.6749 59.9894L46.5 59.9995H37.5C36.6716 59.9995 36 59.3279 36 58.4995C36 57.7303 36.5791 57.0963 37.3251 57.0096L37.5 56.9995H46.5Z" fill="#E1000F"/>
<path d="M84 52.4995C84 51.6711 83.3284 50.9995 82.5 50.9995H73.5L73.3251 51.0096C72.5791 51.0963 72 51.7303 72 52.4995C72 53.3279 72.6716 53.9995 73.5 53.9995H82.5L82.6749 53.9894C83.4209 53.9028 84 53.2688 84 52.4995Z" fill="#E1000F"/>
<path d="M82.5 56.9995C83.3284 56.9995 84 57.6711 84 58.4995C84 59.2688 83.4209 59.9028 82.6749 59.9894L82.5 59.9995H73.5C72.6716 59.9995 72 59.3279 72 58.4995C72 57.7303 72.5791 57.0963 73.3251 57.0096L73.5 56.9995H82.5Z" fill="#E1000F"/>
<path d="M102 52.4995C102 51.6711 101.328 50.9995 100.5 50.9995H91.5L91.3251 51.0096C90.5791 51.0963 90 51.7303 90 52.4995C90 53.3279 90.6716 53.9995 91.5 53.9995H100.5L100.675 53.9894C101.421 53.9028 102 53.2688 102 52.4995Z" fill="#E1000F"/>
<path d="M100.5 56.9995C101.328 56.9995 102 57.6711 102 58.4995C102 59.2688 101.421 59.9028 100.675 59.9894L100.5 59.9995H91.5C90.6716 59.9995 90 59.3279 90 58.4995C90 57.7303 90.5791 57.0963 91.3251 57.0096L91.5 56.9995H100.5Z" fill="#E1000F"/>
<path d="M61.4899 14.8246C61.4033 14.0786 60.7693 13.4995 60 13.4995C59.1716 13.4995 58.5 14.1711 58.5 14.9995V20.9995L58.5101 21.1744C58.5967 21.9205 59.2307 22.4995 60 22.4995C60.8284 22.4995 61.5 21.8279 61.5 20.9995V14.9995L61.4899 14.8246Z" fill="#000091"/>
<path d="M61.4899 25.3246C61.4033 24.5786 60.7693 23.9995 60 23.9995C59.1716 23.9995 58.5 24.6711 58.5 25.4995V29.9995H25.5L25.3251 30.0096C24.5791 30.0963 24 30.7303 24 31.4995V38.9995H4.5L4.32507 39.0096C3.57906 39.0963 3 39.7303 3 40.4995C3 41.3279 3.67157 41.9995 4.5 41.9995H115.5L115.675 41.9894C116.421 41.9028 117 41.2688 117 40.4995C117 39.6711 116.328 38.9995 115.5 38.9995H96V31.4995L95.9899 31.3246C95.9033 30.5786 95.2693 29.9995 94.5 29.9995C93.6716 29.9995 93 30.6711 93 31.4995V38.9995H27V32.9995H79.5L79.6749 32.9894C80.4209 32.9028 81 32.2688 81 31.4995C81 30.6711 80.3284 29.9995 79.5 29.9995H61.5V25.4995L61.4899 25.3246Z" fill="#000091"/>
<path d="M37.5 65.9995C38.2693 65.9995 38.9033 66.5786 38.9899 67.3246L39 67.4995V97.4995C39 98.3279 38.3284 98.9995 37.5 98.9995C36.7307 98.9995 36.0967 98.4205 36.0101 97.6744L36 97.4995V67.4995C36 66.6711 36.6716 65.9995 37.5 65.9995Z" fill="#000091"/>
<path d="M32.9899 73.3246C32.9033 72.5786 32.2693 71.9995 31.5 71.9995C30.6716 71.9995 30 72.6711 30 73.4995V102H18V73.4995L17.9899 73.3246C17.9033 72.5786 17.2693 71.9995 16.5 71.9995C15.6716 71.9995 15 72.6711 15 73.4995V102H10.5L10.3251 102.01C9.57906 102.096 9 102.73 9 103.5C9 104.328 9.67157 105 10.5 105H31.5C31.6036 105 31.7047 104.989 31.8023 104.969C32.4858 104.829 33 104.224 33 103.5V73.4995L32.9899 73.3246Z" fill="#000091"/>
<path d="M22.5 65.9995C23.2693 65.9995 23.9033 66.5786 23.9899 67.3246L24 67.4995V91.4995C24 92.3279 23.3284 92.9995 22.5 92.9995C21.7307 92.9995 21.0967 92.4205 21.0101 91.6744L21 91.4995V67.4995C21 66.6711 21.6716 65.9995 22.5 65.9995Z" fill="#000091"/>
<path d="M88.5 29.9995C89.3284 29.9995 90 30.6711 90 31.4995C90 32.2688 89.4209 32.9028 88.6749 32.9894L88.5 32.9995H85.5C84.6716 32.9995 84 32.3279 84 31.4995C84 30.7303 84.5791 30.0963 85.3251 30.0096L85.5 29.9995H88.5Z" fill="#000091"/>
<path d="M10.5 44.9995C11.2693 44.9995 11.9033 45.5786 11.9899 46.3246L12 46.4995V97.4995C12 98.3279 11.3284 98.9995 10.5 98.9995C9.73075 98.9995 9.09674 98.4205 9.01009 97.6744L9 97.4995V46.4995C9 45.6711 9.67157 44.9995 10.5 44.9995Z" fill="#000091"/>
<path fill-rule="evenodd" clip-rule="evenodd" d="M71.9899 73.3246C71.9033 72.5786 71.2693 71.9995 70.5 71.9995H49.5L49.3251 72.0096C48.5791 72.0962 48 72.7303 48 73.4995V95.9995H43.5L43.3251 96.0096C42.5791 96.0963 42 96.7303 42 97.4995C42 98.3279 42.6716 98.9995 43.5 98.9995H76.5L76.6749 98.9894C77.4209 98.9028 78 98.2688 78 97.4995C78 96.6711 77.3284 95.9995 76.5 95.9995H72V73.4995L71.9899 73.3246ZM58.5 95.9995H51V74.998H69V95.9995H61.5V82.4995L61.4899 82.3246C61.4033 81.5786 60.7693 80.9995 60 80.9995C59.1716 80.9995 58.5 81.6711 58.5 82.4995V95.9995Z" fill="#000091"/>
<path d="M67.5 65.9995C68.3284 65.9995 69 66.6711 69 67.4995C69 68.2688 68.4209 68.9028 67.6749 68.9894L67.5 68.9995H52.5C51.6716 68.9995 51 68.3279 51 67.4995C51 66.7303 51.5791 66.0962 52.3251 66.0096L52.5 65.9995H67.5Z" fill="#000091"/>
<path d="M82.5 65.9995C81.7307 65.9995 81.0967 66.5786 81.0101 67.3246L81 67.4995V97.4995C81 98.3279 81.6716 98.9995 82.5 98.9995C83.2693 98.9995 83.9033 98.4205 83.9899 97.6744L84 97.4995V67.4995C84 66.6711 83.3284 65.9995 82.5 65.9995Z" fill="#000091"/>
<path d="M87.0101 73.3246C87.0967 72.5786 87.7307 71.9995 88.5 71.9995C89.3284 71.9995 90 72.6711 90 73.4995V91.4995L89.9899 91.6744C89.9033 92.4205 89.2693 92.9995 88.5 92.9995C87.6716 92.9995 87 92.3279 87 91.4995V73.4995L87.0101 73.3246Z" fill="#000091"/>
<path d="M97.5 65.9995C96.7307 65.9995 96.0967 66.5786 96.0101 67.3246L96 67.4995V97.4995C96 98.3279 96.6716 98.9995 97.5 98.9995C98.2693 98.9995 98.9033 98.4205 98.9899 97.6744L99 97.4995V67.4995C99 66.6711 98.3284 65.9995 97.5 65.9995Z" fill="#000091"/>
<path d="M102.01 73.3246C102.097 72.5786 102.731 71.9995 103.5 71.9995C104.328 71.9995 105 72.6711 105 73.4995V103.5C105 103.559 104.997 103.617 104.99 103.674C104.91 104.363 104.364 104.909 103.675 104.989C103.618 104.996 103.559 105 103.5 105H37.5C36.6716 105 36 104.328 36 103.5C36 102.73 36.5791 102.096 37.3251 102.01L37.5 102H102V73.4995L102.01 73.3246Z" fill="#000091"/>
<path d="M109.5 44.9995C110.269 44.9995 110.903 45.5786 110.99 46.3246L111 46.4995V103.5C111 104.328 110.328 105 109.5 105C108.731 105 108.097 104.42 108.01 103.674L108 103.5V46.4995C108 45.6711 108.672 44.9995 109.5 44.9995Z" fill="#000091"/>
</svg>
