<svg width="120" height="120" viewBox="0 0 120 120" fill="none" xmlns="http://www.w3.org/2000/svg">
<path fill-rule="evenodd" clip-rule="evenodd" d="M108 17.9995C107.173 17.9995 106.5 17.3266 106.5 16.4995C106.5 15.6723 107.173 14.9995 108 14.9995C108.827 14.9995 109.5 15.6723 109.5 16.4995C109.5 17.3266 108.827 17.9995 108 17.9995Z" fill="#ECECFE"/>
<path fill-rule="evenodd" clip-rule="evenodd" d="M97.5 35.9995C96.6729 35.9995 96 35.3266 96 34.4995C96 33.6723 96.6729 32.9995 97.5 32.9995C98.3271 32.9995 99 33.6723 99 34.4995C99 35.3266 98.3271 35.9995 97.5 35.9995Z" fill="#ECECFE"/>
<path fill-rule="evenodd" clip-rule="evenodd" d="M19.5 106.5C18.6729 106.5 18 105.827 18 105C18 104.172 18.6729 103.5 19.5 103.5C20.3271 103.5 21 104.172 21 105C21 105.827 20.3271 106.5 19.5 106.5Z" fill="#ECECFE"/>
<path fill-rule="evenodd" clip-rule="evenodd" d="M100.5 112.5C99.6729 112.5 99 111.827 99 111C99 110.172 99.6729 109.5 100.5 109.5C101.327 109.5 102 110.172 102 111C102 111.827 101.327 112.5 100.5 112.5Z" fill="#ECECFE"/>
<path fill-rule="evenodd" clip-rule="evenodd" d="M85.5 11.9995C84.6729 11.9995 84 11.3266 84 10.4995C84 9.67234 84.6729 8.99951 85.5 8.99951C86.3271 8.99951 87 9.67234 87 10.4995C87 11.3266 86.3271 11.9995 85.5 11.9995Z" fill="#ECECFE"/>
<path fill-rule="evenodd" clip-rule="evenodd" d="M10.5 20.9995C9.6729 20.9995 9 20.3266 9 19.4995C9 18.6723 9.6729 17.9995 10.5 17.9995C11.3271 17.9995 12 18.6723 12 19.4995C12 20.3266 11.3271 20.9995 10.5 20.9995Z" fill="#ECECFE"/>
<path fill-rule="evenodd" clip-rule="evenodd" d="M75.5575 76.6068C76.3267 76.9145 76.7008 77.7875 76.3931 78.5566L70.3931 93.5566C70.0854 94.3258 69.2125 94.6999 68.4433 94.3923C67.6741 94.0846 67.3 93.2116 67.6077 92.4425L73.6077 77.4425C73.9154 76.6733 74.7883 76.2992 75.5575 76.6068ZM87.5575 84.1068C88.3267 84.4145 88.7008 85.2875 88.3931 86.0566L85.3931 93.5566C85.0854 94.3258 84.2125 94.6999 83.4433 94.3923C82.6741 94.0846 82.3 93.2116 82.6077 92.4425L85.6077 84.9425C85.9154 84.1733 86.7883 83.7992 87.5575 84.1068Z" fill="#E1000F"/>
<path fill-rule="evenodd" clip-rule="evenodd" d="M53.0575 76.6068C53.8267 76.9145 54.2008 77.7875 53.8931 78.5566L47.8931 93.5566C47.5854 94.3258 46.7125 94.6999 45.9433 94.3923C45.1741 94.0846 44.8 93.2116 45.1077 92.4425L51.1077 77.4425C51.4154 76.6733 52.2883 76.2992 53.0575 76.6068Z" fill="#E1000F"/>
<path fill-rule="evenodd" clip-rule="evenodd" d="M30.5575 76.6068C31.3267 76.9145 31.7008 77.7875 31.3931 78.5566L25.3931 93.5566C25.0854 94.3258 24.2125 94.6999 23.4433 94.3923C22.6741 94.0846 22.3 93.2116 22.6077 92.4425L28.6077 77.4425C28.9154 76.6733 29.7883 76.2992 30.5575 76.6068Z" fill="#E1000F"/>
<path fill-rule="evenodd" clip-rule="evenodd" d="M48.0004 56.9995C50.4856 56.9995 52.5004 54.9848 52.5004 52.4995C52.5004 50.0142 50.4856 47.9995 48.0004 47.9995C45.5151 47.9995 43.5004 50.0142 43.5004 52.4995C43.5004 54.9848 45.5151 56.9995 48.0004 56.9995ZM48.0004 59.9995C52.1425 59.9995 55.5004 56.6416 55.5004 52.4995C55.5004 48.3574 52.1425 44.9995 48.0004 44.9995C43.8582 44.9995 40.5004 48.3574 40.5004 52.4995C40.5004 56.6416 43.8582 59.9995 48.0004 59.9995Z" fill="#E1000F"/>
<path fill-rule="evenodd" clip-rule="evenodd" d="M28.5004 46.4995C28.5004 45.6711 29.1719 44.9995 30.0004 44.9995H36.0004C36.8288 44.9995 37.5004 45.6711 37.5004 46.4995C37.5004 47.3279 36.8288 47.9995 36.0004 47.9995H30.0004C29.1719 47.9995 28.5004 47.3279 28.5004 46.4995ZM28.5004 52.4995C28.5004 51.6711 29.1719 50.9995 30.0004 50.9995H36.0004C36.8288 50.9995 37.5004 51.6711 37.5004 52.4995C37.5004 53.3279 36.8288 53.9995 36.0004 53.9995H30.0004C29.1719 53.9995 28.5004 53.3279 28.5004 52.4995ZM28.5004 58.4995C28.5004 57.6711 29.1719 56.9995 30.0004 56.9995H36.0004C36.8288 56.9995 37.5004 57.6711 37.5004 58.4995C37.5004 59.3279 36.8288 59.9995 36.0004 59.9995H30.0004C29.1719 59.9995 28.5004 59.3279 28.5004 58.4995Z" fill="#E1000F"/>
<path fill-rule="evenodd" clip-rule="evenodd" d="M73.3428 29.0072C73.9396 26.9303 75.8395 25.4995 78.0005 25.4995C80.1614 25.4995 82.0613 26.9303 82.6581 29.0072L90.579 56.5706L96.6092 76.0561L96.6179 76.0852L98.0301 80.9995H103.5C104.329 80.9995 105 81.6711 105 82.4995V89.9995C105 90.8279 104.329 91.4995 103.5 91.4995H93.0004C92.172 91.4995 91.5004 90.8279 91.5004 89.9995C91.5004 89.1711 92.172 88.4995 93.0004 88.4995H102V83.9995H96.9005C96.2316 83.9995 95.6435 83.5567 95.4588 82.9138L93.7388 76.9283L90.3946 66.1222H76.5005C75.672 66.1222 75.0005 65.4506 75.0005 64.6222C75.0005 63.7938 75.672 63.1222 76.5005 63.1222H89.4661L87.7086 57.443L87.6999 57.4138L86.2876 52.4995H69.7133L68.3011 57.4138L68.2924 57.443L64.1145 70.943C63.8696 71.7344 63.0295 72.1774 62.2381 71.9325C61.4467 71.6875 61.0037 70.8475 61.2486 70.0561L63.0674 64.1787L65.422 56.5706L73.3428 29.0072ZM70.5754 49.4995H85.4255L82.4082 38.9995H73.5927L70.5754 49.4995ZM74.4548 35.9995H81.5461L79.7748 29.8358C79.5474 29.0446 78.8237 28.4995 78.0005 28.4995C77.1772 28.4995 76.4535 29.0446 76.2261 29.8358L74.4548 35.9995Z" fill="#000091"/>
<path fill-rule="evenodd" clip-rule="evenodd" d="M68.0575 76.6068C68.8267 76.9145 69.2008 77.7874 68.8931 78.5566L62.8931 93.5566C62.5854 94.3258 61.7125 94.6999 60.9433 94.3922C60.1741 94.0846 59.8 93.2116 60.1077 92.4424L66.1077 77.4424C66.4153 76.6732 67.2883 76.2991 68.0575 76.6068ZM83.0575 76.6068C83.8267 76.9145 84.2008 77.7874 83.8931 78.5566L77.8931 93.5566C77.5854 94.3258 76.7125 94.6999 75.9433 94.3922C75.1741 94.0846 74.8 93.2116 75.1077 92.4424L81.1077 77.4424C81.4153 76.6732 82.2883 76.2991 83.0575 76.6068Z" fill="#000091"/>
<path fill-rule="evenodd" clip-rule="evenodd" d="M45.5575 76.6068C46.3267 76.9145 46.7008 77.7874 46.3931 78.5566L40.3931 93.5566C40.0854 94.3258 39.2125 94.6999 38.4433 94.3922C37.6741 94.0846 37.3 93.2116 37.6077 92.4424L43.6077 77.4424C43.9154 76.6732 44.7883 76.2991 45.5575 76.6068ZM60.5575 76.6068C61.3267 76.9145 61.7008 77.7874 61.3931 78.5566L55.3931 93.5566C55.0854 94.3258 54.2125 94.6999 53.4433 94.3922C52.6741 94.0846 52.3 93.2116 52.6077 92.4424L58.6077 77.4424C58.9154 76.6732 59.7883 76.2991 60.5575 76.6068Z" fill="#000091"/>
<path fill-rule="evenodd" clip-rule="evenodd" d="M38.0575 76.6068C38.8267 76.9145 39.2008 77.7874 38.8931 78.5566L32.8931 93.5566C32.5854 94.3258 31.7125 94.6999 30.9433 94.3922C30.1741 94.0846 29.8 93.2116 30.1077 92.4424L36.1077 77.4424C36.4154 76.6732 37.2883 76.2991 38.0575 76.6068ZM21.5575 80.3568C22.3267 80.6645 22.7008 81.5374 22.3931 82.3066L17.8931 93.5566C17.5854 94.3258 16.7125 94.6999 15.9433 94.3922C15.1741 94.0846 14.8 93.2116 15.1077 92.4424L19.6077 81.1924C19.9154 80.4232 20.7883 80.0491 21.5575 80.3568Z" fill="#000091"/>
<path fill-rule="evenodd" clip-rule="evenodd" d="M22.5004 26.9995C22.5004 26.1711 23.172 25.4995 24.0004 25.4995H66.0004C66.8288 25.4995 67.5004 26.1711 67.5004 26.9995V29.9995C67.5004 30.8279 66.8288 31.4995 66.0004 31.4995C65.172 31.4995 64.5004 30.8279 64.5004 29.9995V28.4995H25.5004V37.4995H61.5004C62.3288 37.4995 63.0004 38.1711 63.0004 38.9995C63.0004 39.8279 62.3288 40.4995 61.5004 40.4995H25.5004V71.9995C25.5004 72.8279 24.8288 73.4995 24.0004 73.4995C23.172 73.4995 22.5004 72.8279 22.5004 71.9995V26.9995Z" fill="#000091"/>
<path d="M31.5004 32.9995C31.5004 33.8279 30.8288 34.4995 30.0004 34.4995C29.172 34.4995 28.5004 33.8279 28.5004 32.9995C28.5004 32.1711 29.172 31.4995 30.0004 31.4995C30.8288 31.4995 31.5004 32.1711 31.5004 32.9995Z" fill="#000091"/>
<path d="M37.5004 32.9995C37.5004 33.8279 36.8288 34.4995 36.0004 34.4995C35.172 34.4995 34.5004 33.8279 34.5004 32.9995C34.5004 32.1711 35.172 31.4995 36.0004 31.4995C36.8288 31.4995 37.5004 32.1711 37.5004 32.9995Z" fill="#000091"/>
<path d="M43.5004 32.9995C43.5004 33.8279 42.8288 34.4995 42.0004 34.4995C41.172 34.4995 40.5004 33.8279 40.5004 32.9995C40.5004 32.1711 41.172 31.4995 42.0004 31.4995C42.8288 31.4995 43.5004 32.1711 43.5004 32.9995Z" fill="#000091"/>
<path d="M72.0004 64.4995C72.0004 65.3279 71.3288 65.9995 70.5004 65.9995C69.672 65.9995 69.0004 65.3279 69.0004 64.4995C69.0004 63.6711 69.672 62.9995 70.5004 62.9995C71.3288 62.9995 72.0004 63.6711 72.0004 64.4995Z" fill="#000091"/>
</svg>
