<svg width="56" height="56" viewBox="0 0 56 56" fill="none" xmlns="http://www.w3.org/2000/svg">
<path fill-rule="evenodd" clip-rule="evenodd" d="M47.6004 9.10001C47.2144 9.10001 46.9004 8.78599 46.9004 8.40001C46.9004 8.014 47.2144 7.70001 47.6004 7.70001C47.9864 7.70001 48.3004 8.014 48.3004 8.40001C48.3004 8.78599 47.9864 9.10001 47.6004 9.10001Z" fill="#ECECFE"/>
<path fill-rule="evenodd" clip-rule="evenodd" d="M28.7 53.2C28.314 53.2 28 52.886 28 52.5C28 52.114 28.314 51.8 28.7 51.8C29.086 51.8 29.4 52.114 29.4 52.5C29.4 52.886 29.086 53.2 28.7 53.2Z" fill="#ECECFE"/>
<path fill-rule="evenodd" clip-rule="evenodd" d="M10.5008 6.99998C10.1148 6.99998 9.80078 6.68596 9.80078 6.29998C9.80078 5.91396 10.1148 5.59998 10.5008 5.59998C10.8868 5.59998 11.2008 5.91396 11.2008 6.29998C11.2008 6.68596 10.8868 6.99998 10.5008 6.99998Z" fill="#ECECFE"/>
<path d="M37.8732 28.387C38.1176 27.8982 38.7913 27.8724 39.0809 28.3098L39.1254 28.387L47.5254 45.187C47.7459 45.6279 47.4538 46.1426 46.9799 46.1955L46.8993 46.2H44.0993C43.7127 46.2 43.3993 45.8866 43.3993 45.5C43.3993 45.141 43.6696 44.8451 44.0177 44.8047L44.0993 44.8H45.766L38.4993 30.2652L31.2319 44.8H41.2993C41.6583 44.8 41.9542 45.0702 41.9946 45.4184L41.9993 45.5C41.9993 45.859 41.7291 46.1549 41.381 46.1953L41.2993 46.2H30.0993C29.6064 46.2 29.2767 45.7085 29.4412 45.261L29.4732 45.187L37.8732 28.387Z" fill="#E1000F"/>
<path d="M38.4993 35C38.8859 35 39.1993 35.3134 39.1993 35.7V39.9C39.1993 40.2866 38.8859 40.6 38.4993 40.6C38.1127 40.6 37.7993 40.2866 37.7993 39.9V35.7C37.7993 35.3134 38.1127 35 38.4993 35Z" fill="#E1000F"/>
<path d="M39.1993 42.7C39.1993 42.3134 38.8859 42 38.4993 42C38.1127 42 37.7993 42.3134 37.7993 42.7C37.7993 43.0866 38.1127 43.4 38.4993 43.4C38.8859 43.4 39.1993 43.0866 39.1993 42.7Z" fill="#E1000F"/>
<path d="M47.5957 13.2183C47.5552 12.8702 47.2594 12.6 46.9004 12.6H9.10039L9.01876 12.6047C8.67062 12.6451 8.40039 12.941 8.40039 13.3V45.5L8.4051 45.5816C8.44554 45.9297 8.74141 46.2 9.10039 46.2H25.9004L25.982 46.1953C26.3302 46.1548 26.6004 45.859 26.6004 45.5L26.5957 45.4183C26.5552 45.0702 26.2594 44.8 25.9004 44.8H9.80039V19.6H35.7004L35.782 19.5953C36.1302 19.5548 36.4004 19.259 36.4004 18.9C36.4004 18.5134 36.087 18.2 35.7004 18.2H9.80039V14H46.2004V18.2H39.9004L39.8188 18.2047C39.4706 18.2451 39.2004 18.541 39.2004 18.9C39.2004 19.2866 39.5138 19.6 39.9004 19.6H46.2004V37.1L46.2051 37.1816C46.2455 37.5297 46.5414 37.8 46.9004 37.8C47.287 37.8 47.6004 37.4866 47.6004 37.1V13.3L47.5957 13.2183Z" fill="#000091"/>
<path d="M11.9004 16.8C11.5144 16.8 11.2004 16.486 11.2004 16.1C11.2004 15.714 11.5144 15.4 11.9004 15.4C12.2864 15.4 12.6004 15.714 12.6004 16.1C12.6004 16.486 12.2864 16.8 11.9004 16.8Z" fill="#000091"/>
<path d="M14.0004 16.1C14.0004 16.486 14.3144 16.8 14.7004 16.8C15.0864 16.8 15.4004 16.486 15.4004 16.1C15.4004 15.714 15.0864 15.4 14.7004 15.4C14.3144 15.4 14.0004 15.714 14.0004 16.1Z" fill="#000091"/>
<path d="M17.5004 16.8C17.1144 16.8 16.8004 16.486 16.8004 16.1C16.8004 15.714 17.1144 15.4 17.5004 15.4C17.8864 15.4 18.2004 15.714 18.2004 16.1C18.2004 16.486 17.8864 16.8 17.5004 16.8Z" fill="#000091"/>
<path d="M44.1004 15.4C44.487 15.4 44.8004 15.7134 44.8004 16.1C44.8004 16.459 44.5302 16.7548 44.182 16.7953L44.1004 16.8H23.1004C22.7138 16.8 22.4004 16.4866 22.4004 16.1C22.4004 15.741 22.6706 15.4451 23.0188 15.4047L23.1004 15.4H44.1004Z" fill="#000091"/>
<path d="M32.2004 24.5C32.2004 24.1134 31.887 23.8 31.5004 23.8H14.7004L14.6188 23.8047C14.2706 23.8451 14.0004 24.141 14.0004 24.5C14.0004 24.8866 14.3138 25.2 14.7004 25.2H31.5004L31.582 25.1953C31.9302 25.1548 32.2004 24.859 32.2004 24.5Z" fill="#000091"/>
<path d="M28.7004 28C29.087 28 29.4004 28.3134 29.4004 28.7C29.4004 29.059 29.1302 29.3548 28.782 29.3953L28.7004 29.4H14.7004C14.3138 29.4 14.0004 29.0866 14.0004 28.7C14.0004 28.341 14.2706 28.0451 14.6188 28.0047L14.7004 28H28.7004Z" fill="#000091"/>
<path d="M25.2004 32.9C25.2004 32.5134 24.887 32.2 24.5004 32.2H14.7004L14.6188 32.2047C14.2706 32.2451 14.0004 32.541 14.0004 32.9C14.0004 33.2866 14.3138 33.6 14.7004 33.6H24.5004L24.582 33.5953C24.9302 33.5548 25.2004 33.259 25.2004 32.9Z" fill="#000091"/>
</svg>
