<svg width="56" height="56" viewBox="0 0 56 56" fill="none" xmlns="http://www.w3.org/2000/svg">
<path fill-rule="evenodd" clip-rule="evenodd" d="M4.2 23.8C4.585 23.8 4.9 23.485 4.9 23.1C4.9 22.715 4.585 22.4 4.2 22.4C3.815 22.4 3.5 22.715 3.5 23.1C3.5 23.485 3.815 23.8 4.2 23.8Z" fill="#ECECFE"/>
<path fill-rule="evenodd" clip-rule="evenodd" d="M32.2 4.19999C32.585 4.19999 32.9 3.88499 32.9 3.49999C32.9 3.11499 32.585 2.79999 32.2 2.79999C31.815 2.79999 31.5 3.11499 31.5 3.49999C31.5 3.88499 31.815 4.19999 32.2 4.19999Z" fill="#ECECFE"/>
<path fill-rule="evenodd" clip-rule="evenodd" d="M46.2 43.4C46.585 43.4 46.9 43.085 46.9 42.7C46.9 42.315 46.585 42 46.2 42C45.815 42 45.5 42.315 45.5 42.7C45.5 43.085 45.815 43.4 46.2 43.4Z" fill="#ECECFE"/>
<path fill-rule="evenodd" clip-rule="evenodd" d="M51.7996 21C52.1846 21 52.4996 20.685 52.4996 20.3C52.4996 19.915 52.1846 19.6 51.7996 19.6C51.4146 19.6 51.0996 19.915 51.0996 20.3C51.0996 20.685 51.4146 21 51.7996 21Z" fill="#ECECFE"/>
<path fill-rule="evenodd" clip-rule="evenodd" d="M25.2 51.1C25.585 51.1 25.9 50.785 25.9 50.4C25.9 50.015 25.585 49.7 25.2 49.7C24.815 49.7 24.5 50.015 24.5 50.4C24.5 50.785 24.815 51.1 25.2 51.1Z" fill="#ECECFE"/>
<path fill-rule="evenodd" clip-rule="evenodd" d="M27.9986 18.4032C23.8776 18.4032 20.5387 21.7421 20.5387 25.8631C20.5387 26.1345 20.5557 26.4154 20.5847 26.6881C20.5857 26.6973 20.5865 26.7064 20.5871 26.7156C21.0088 30.4303 24.1662 33.323 27.9986 33.323C32.1196 33.323 35.4585 29.9841 35.4585 25.8631C35.4585 21.7421 32.1196 18.4032 27.9986 18.4032ZM19.1899 26.8111C19.1906 26.8224 19.1916 26.8337 19.1928 26.8451C19.681 31.2725 23.4358 34.723 27.9986 34.723C32.8928 34.723 36.8585 30.7573 36.8585 25.8631C36.8585 20.9689 32.8928 17.0032 27.9986 17.0032C23.1044 17.0032 19.1387 20.9689 19.1387 25.8631C19.1387 26.1823 19.158 26.5043 19.1899 26.8111Z" fill="#E1000F"/>
<path fill-rule="evenodd" clip-rule="evenodd" d="M27.9993 34.7231C21.6304 34.7231 16.4625 39.8852 16.4625 46.2598C16.4625 46.6464 16.1491 46.9598 15.7625 46.9598C15.3759 46.9598 15.0625 46.6464 15.0625 46.2598C15.0625 39.1116 20.8577 33.3231 27.9993 33.3231C35.141 33.3231 40.936 39.118 40.936 46.2598C40.936 46.6464 40.6226 46.9598 40.236 46.9598C39.8494 46.9598 39.536 46.6464 39.536 46.2598C39.536 39.8912 34.3678 34.7231 27.9993 34.7231Z" fill="#E1000F"/>
<path d="M40.1754 15.1777C40.9486 15.1777 41.5754 14.5509 41.5754 13.7777C41.5754 13.0045 40.9486 12.3777 40.1754 12.3777C39.4022 12.3777 38.7754 13.0045 38.7754 13.7777C38.7754 14.5509 39.4022 15.1777 40.1754 15.1777Z" fill="#E1000F"/>
<path fill-rule="evenodd" clip-rule="evenodd" d="M44.8298 24.0019C45.2164 24.0051 45.5273 24.321 45.5241 24.7076L45.4742 30.8634C45.4711 31.25 45.1551 31.5608 44.7685 31.5577C44.382 31.5546 44.0711 31.2386 44.0742 30.8521L44.1242 24.6962C44.1273 24.3096 44.4433 23.9988 44.8298 24.0019Z" fill="#000091"/>
<path fill-rule="evenodd" clip-rule="evenodd" d="M10.2042 8.60588C10.3365 8.47309 10.5166 8.39894 10.7041 8.40004L44.942 8.59982C45.1279 8.60091 45.3057 8.67586 45.4362 8.80817C45.5668 8.94048 45.6393 9.11927 45.6379 9.30513L45.5443 21.623C45.5413 22.0096 45.2256 22.3206 44.839 22.3177C44.4524 22.3148 44.1414 21.999 44.1443 21.6124L44.2326 9.9957L11.4065 9.80416L11.5998 30.8513C11.6033 31.2379 11.2928 31.5541 10.9062 31.5577C10.5196 31.5612 10.2034 31.2507 10.1998 30.8642L10 9.10645C9.99831 8.91899 10.0719 8.73866 10.2042 8.60588Z" fill="#000091"/>
<path fill-rule="evenodd" clip-rule="evenodd" d="M10.3975 30.3694C10.5292 30.2341 10.7101 30.1577 10.899 30.1577H17.0548C17.4414 30.1577 17.7548 30.4711 17.7548 30.8577C17.7548 31.2443 17.4414 31.5577 17.0548 31.5577H11.1944L6.55779 36.3198H13.3713C13.7579 36.3198 14.0713 36.6332 14.0713 37.0198C14.0713 37.4064 13.7579 37.7198 13.3713 37.7198H4.89924C4.61781 37.7198 4.36375 37.5513 4.25432 37.292C4.14489 37.0327 4.20138 36.7331 4.3977 36.5315L10.3975 30.3694Z" fill="#000091"/>
<path d="M13.9947 37.0198C13.9947 37.3646 13.7152 37.6442 13.3704 37.6442C13.0256 37.6442 12.7461 37.3646 12.7461 37.0198C12.7461 36.675 13.0256 36.3955 13.3704 36.3955C13.7152 36.3955 13.9947 36.675 13.9947 37.0198Z" fill="#000091"/>
<path d="M13.9947 37.0198C13.9947 37.3646 13.7152 37.6442 13.3704 37.6442C13.0256 37.6442 12.7461 37.3646 12.7461 37.0198C12.7461 36.675 13.0256 36.3955 13.3704 36.3955C13.7152 36.3955 13.9947 36.675 13.9947 37.0198Z" fill="#000091"/>
<path d="M13.9947 37.0198C13.9947 37.3646 13.7152 37.6442 13.3704 37.6442C13.0256 37.6442 12.7461 37.3646 12.7461 37.0198C12.7461 36.675 13.0256 36.3955 13.3704 36.3955C13.7152 36.3955 13.9947 36.675 13.9947 37.0198Z" fill="#000091"/>
<path d="M13.9947 37.0198C13.9947 37.3646 13.7152 37.6442 13.3704 37.6442C13.0256 37.6442 12.7461 37.3646 12.7461 37.0198C12.7461 36.675 13.0256 36.3955 13.3704 36.3955C13.7152 36.3955 13.9947 36.675 13.9947 37.0198Z" fill="#000091"/>
<path d="M13.9947 37.0198C13.9947 37.3646 13.7152 37.6442 13.3704 37.6442C13.0256 37.6442 12.7461 37.3646 12.7461 37.0198C12.7461 36.675 13.0256 36.3955 13.3704 36.3955C13.7152 36.3955 13.9947 36.675 13.9947 37.0198Z" fill="#000091"/>
<path fill-rule="evenodd" clip-rule="evenodd" d="M15.75 37.0198C15.75 36.6332 16.0634 36.3198 16.45 36.3198H17.2179C17.6045 36.3198 17.9179 36.6332 17.9179 37.0198C17.9179 37.4064 17.6045 37.7198 17.2179 37.7198H16.45C16.0634 37.7198 15.75 37.4064 15.75 37.0198Z" fill="#000091"/>
<path fill-rule="evenodd" clip-rule="evenodd" d="M37.9199 30.8577C37.9199 30.4711 38.2333 30.1577 38.6199 30.1577H44.7758C44.9583 30.1577 45.1335 30.229 45.2643 30.3563L51.5887 36.5184C51.7926 36.7172 51.8559 37.0197 51.7486 37.2835C51.6413 37.5473 51.3849 37.7198 51.1002 37.7198H38.7822C38.3956 37.7198 38.0822 37.4064 38.0822 37.0198C38.0822 36.6332 38.3956 36.3198 38.7822 36.3198H49.3787L44.4911 31.5577H38.6199C38.2333 31.5577 37.9199 31.2443 37.9199 30.8577Z" fill="#000091"/>
<path fill-rule="evenodd" clip-rule="evenodd" d="M13.4395 12.3777C13.4395 11.9911 13.7529 11.6777 14.1395 11.6777H32.6195C33.0061 11.6777 33.3195 11.9911 33.3195 12.3777C33.3195 12.7643 33.0061 13.0777 32.6195 13.0777H14.1395C13.7529 13.0777 13.4395 12.7643 13.4395 12.3777Z" fill="#000091"/>
<path fill-rule="evenodd" clip-rule="evenodd" d="M13.4395 15.4619C13.4395 15.0753 13.7529 14.7619 14.1395 14.7619H20.3015C20.6881 14.7619 21.0015 15.0753 21.0015 15.4619C21.0015 15.8485 20.6881 16.1619 20.3015 16.1619H14.1395C13.7529 16.1619 13.4395 15.8485 13.4395 15.4619Z" fill="#000091"/>
<path fill-rule="evenodd" clip-rule="evenodd" d="M13.4395 18.5398C13.4395 18.1532 13.7529 17.8398 14.1395 17.8398H17.2174C17.604 17.8398 17.9174 18.1532 17.9174 18.5398C17.9174 18.9264 17.604 19.2398 17.2174 19.2398H14.1395C13.7529 19.2398 13.4395 18.9264 13.4395 18.5398Z" fill="#000091"/>
</svg>
