<svg width="120" height="120" viewBox="0 0 120 120" fill="none" xmlns="http://www.w3.org/2000/svg">
<path fill-rule="evenodd" clip-rule="evenodd" d="M88.5 114C87.6729 114 87 113.327 87 112.5C87 111.672 87.6729 111 88.5 111C89.3271 111 90 111.672 90 112.5C90 113.327 89.3271 114 88.5 114Z" fill="#ECECFE"/>
<path fill-rule="evenodd" clip-rule="evenodd" d="M100.5 17.9995C99.6729 17.9995 99 17.3266 99 16.4995C99 15.6723 99.6729 14.9995 100.5 14.9995C101.327 14.9995 102 15.6723 102 16.4995C102 17.3266 101.327 17.9995 100.5 17.9995Z" fill="#ECECFE"/>
<path fill-rule="evenodd" clip-rule="evenodd" d="M13.5 23.9995C12.6729 23.9995 12 23.3266 12 22.4995C12 21.6723 12.6729 20.9995 13.5 20.9995C14.3271 20.9995 15 21.6723 15 22.4995C15 23.3266 14.3271 23.9995 13.5 23.9995Z" fill="#ECECFE"/>
<path fill-rule="evenodd" clip-rule="evenodd" d="M82.5 44.9995H67.5C66.6716 44.9995 66 45.6711 66 46.4995V58.4995C66 59.3279 66.6716 59.9995 67.5 59.9995H82.5C83.3284 59.9995 84 59.3279 84 58.4995V46.4995C84 45.6711 83.3284 44.9995 82.5 44.9995ZM81 47.9995V56.9995H69V47.9995H81Z" fill="#E1000F"/>
<path fill-rule="evenodd" clip-rule="evenodd" d="M93 67.4995C93 66.6711 92.3284 65.9995 91.5 65.9995H76.5C75.6716 65.9995 75 66.6711 75 67.4995V79.4995C75 80.3279 75.6716 80.9995 76.5 80.9995H91.5C92.3284 80.9995 93 80.3279 93 79.4995V67.4995ZM90 68.9995V77.9995H78V68.9995H90Z" fill="#E1000F"/>
<path d="M91.5 44.9995C92.3284 44.9995 93 45.6711 93 46.4995C93 47.2688 92.4209 47.9028 91.6749 47.9894L91.5 47.9995H88.5C87.6716 47.9995 87 47.3279 87 46.4995C87 45.7303 87.5791 45.0963 88.3251 45.0096L88.5 44.9995H91.5Z" fill="#E1000F"/>
<path d="M93 52.4995C93 51.6711 92.3284 50.9995 91.5 50.9995H88.5L88.3251 51.0096C87.5791 51.0963 87 51.7303 87 52.4995C87 53.3279 87.6716 53.9995 88.5 53.9995H91.5L91.6749 53.9894C92.4209 53.9028 93 53.2688 93 52.4995Z" fill="#E1000F"/>
<path d="M91.5 56.9995C92.3284 56.9995 93 57.6711 93 58.4995C93 59.2688 92.4209 59.9028 91.6749 59.9894L91.5 59.9995H88.5C87.6716 59.9995 87 59.3279 87 58.4995C87 57.7303 87.5791 57.0963 88.3251 57.0096L88.5 56.9995H91.5Z" fill="#E1000F"/>
<path d="M72 67.4995C72 66.6711 71.3284 65.9995 70.5 65.9995H67.5L67.3251 66.0096C66.5791 66.0963 66 66.7303 66 67.4995C66 68.3279 66.6716 68.9995 67.5 68.9995H70.5L70.6749 68.9894C71.4209 68.9028 72 68.2688 72 67.4995Z" fill="#E1000F"/>
<path d="M70.5 71.9995C71.3284 71.9995 72 72.6711 72 73.4995C72 74.2688 71.4209 74.9028 70.6749 74.9894L70.5 74.9995H67.5C66.6716 74.9995 66 74.3279 66 73.4995C66 72.7303 66.5791 72.0963 67.3251 72.0096L67.5 71.9995H70.5Z" fill="#E1000F"/>
<path d="M72 79.4995C72 78.6711 71.3284 77.9995 70.5 77.9995H67.5L67.3251 78.0096C66.5791 78.0963 66 78.7303 66 79.4995C66 80.3279 66.6716 80.9995 67.5 80.9995H70.5L70.6749 80.9894C71.4209 80.9028 72 80.2688 72 79.4995Z" fill="#E1000F"/>
<path d="M24 31.4995C24 32.3266 24.6729 32.9995 25.5 32.9995C26.3271 32.9995 27 32.3266 27 31.4995C27 30.6723 26.3271 29.9995 25.5 29.9995C24.6729 29.9995 24 30.6723 24 31.4995Z" fill="#000091"/>
<path d="M31.5 32.9995C30.6729 32.9995 30 32.3266 30 31.4995C30 30.6723 30.6729 29.9995 31.5 29.9995C32.3271 29.9995 33 30.6723 33 31.4995C33 32.3266 32.3271 32.9995 31.5 32.9995Z" fill="#000091"/>
<path d="M36 31.4995C36 32.3266 36.6729 32.9995 37.5 32.9995C38.3271 32.9995 39 32.3266 39 31.4995C39 30.6723 38.3271 29.9995 37.5 29.9995C36.6729 29.9995 36 30.6723 36 31.4995Z" fill="#000091"/>
<path d="M48 42.3507C47.9994 42.1618 47.839 41.9995 47.6311 41.9995H45.5662L45.4669 42.0125C45.3398 42.0465 45.2384 42.1443 45.2072 42.272L43.1721 50.5915L43.1731 50.1892L43.1615 50.1013L43.1283 50.0206C43.0852 49.9448 43.0135 49.8847 42.9241 49.8554L39.7299 48.8056L42.9241 47.7571L43.0072 47.7181C43.1091 47.6539 43.1731 47.5439 43.1731 47.4233V45.5793L43.1617 45.4913C43.1097 45.2958 42.8888 45.1744 42.6783 45.2477L36.2427 47.4886L36.1615 47.5283C36.0621 47.5929 36 47.7015 36 47.8202V49.7922L36.0113 49.8788C36.0407 49.9904 36.1261 50.0833 36.2427 50.1239L42.6783 52.3648L42.7356 52.3774L42.4454 53.5661L42.4355 53.6483C42.4361 53.8372 42.5965 53.9995 42.8044 53.9995H44.8693L44.9686 53.9865C45.0957 53.9525 45.1971 53.8547 45.2283 53.727L46.7183 47.634C46.7318 47.6403 46.7459 47.6458 46.7604 47.6506L50.0986 48.7489L46.7604 49.8484L46.6735 49.8893C46.5669 49.9566 46.5 50.0717 46.5 50.1981V52.1295L46.5119 52.2217C46.5662 52.4265 46.7973 52.5537 47.0173 52.4769L53.7463 50.1297L53.8312 50.0881C53.9351 50.0204 54 49.9066 54 49.7823V47.7167L53.9882 47.626C53.9574 47.5092 53.8681 47.4118 53.7463 47.3693L47.3303 45.1313L47.9901 42.4329L48 42.3507Z" fill="#000091"/>
<path d="M24 47.9995V41.9995H27V47.9995H24Z" fill="#000091"/>
<path d="M24 53.9995V50.9995H27V53.9995H24Z" fill="#000091"/>
<path d="M27 62.9995V56.9995H24V62.9995H27Z" fill="#000091"/>
<path d="M24 71.9995V65.9995H27V71.9995H24Z" fill="#000091"/>
<path d="M27 77.9995V74.9995H24V77.9995H27Z" fill="#000091"/>
<path fill-rule="evenodd" clip-rule="evenodd" d="M100.5 23.9995H19.5C18.6716 23.9995 18 24.6711 18 25.4995V94.4995C18 95.3279 18.6716 95.9995 19.5 95.9995H100.5C101.328 95.9995 102 95.3279 102 94.4995V25.4995C102 24.6711 101.328 23.9995 100.5 23.9995ZM91.5 86.9995H99V38.9995H85.5C84.6716 38.9995 84 38.3279 84 37.4995C84 36.7303 84.5791 36.0963 85.3251 36.0096L85.5 35.9995H99V26.9995H21V35.9995H76.5C77.3284 35.9995 78 36.6711 78 37.4995C78 38.2688 77.4209 38.9028 76.6749 38.9894L76.5 38.9995H60V86.9995H82.5C83.3284 86.9995 84 87.6711 84 88.4995C84 89.2688 83.4209 89.9028 82.6749 89.9894L82.5 89.9995H21V92.9995H99V89.9995H91.5C90.6716 89.9995 90 89.3279 90 88.4995C90 87.7303 90.5791 87.0962 91.3251 87.0096L91.5 86.9995ZM33 86.9995H57V38.9995H33V86.9995ZM21 38.9995H30V86.9995H21V38.9995Z" fill="#000091"/>
</svg>
