<svg width="132" height="132" viewBox="0 0 132 132" fill="none" xmlns="http://www.w3.org/2000/svg">
<path fill-rule="evenodd" clip-rule="evenodd" d="M31.3492 118.8C30.4394 118.8 29.6992 118.06 29.6992 117.15C29.6992 116.24 30.4394 115.5 31.3492 115.5C32.259 115.5 32.9992 116.24 32.9992 117.15C32.9992 118.06 32.259 118.8 31.3492 118.8Z" fill="#ECECFE"/>
<path fill-rule="evenodd" clip-rule="evenodd" d="M51.15 16.5C50.2402 16.5 49.5 15.7598 49.5 14.85C49.5 13.9401 50.2402 13.2 51.15 13.2C52.0598 13.2 52.8 13.9401 52.8 14.85C52.8 15.7598 52.0598 16.5 51.15 16.5Z" fill="#ECECFE"/>
<path fill-rule="evenodd" clip-rule="evenodd" d="M110.548 108.9C109.639 108.9 108.898 108.16 108.898 107.25C108.898 106.34 109.639 105.6 110.548 105.6C111.458 105.6 112.198 106.34 112.198 107.25C112.198 108.16 111.458 108.9 110.548 108.9Z" fill="#ECECFE"/>
<path fill-rule="evenodd" clip-rule="evenodd" d="M110.548 26.4C109.639 26.4 108.898 25.6598 108.898 24.75C108.898 23.8401 109.639 23.1 110.548 23.1C111.458 23.1 112.198 23.8401 112.198 24.75C112.198 25.6598 111.458 26.4 110.548 26.4Z" fill="#ECECFE"/>
<path fill-rule="evenodd" clip-rule="evenodd" d="M14.8492 52.8C13.9394 52.8 13.1992 52.0598 13.1992 51.15C13.1992 50.2401 13.9394 49.5 14.8492 49.5C15.759 49.5 16.4992 50.2401 16.4992 51.15C16.4992 52.0598 15.759 52.8 14.8492 52.8Z" fill="#ECECFE"/>
<path d="M60.8295 51.2092C61.2851 50.42 61.0147 49.4109 60.2255 48.9553C56.2846 46.68 51.2312 48.034 48.9558 51.975C46.6806 55.9159 48.0347 60.9695 51.9755 63.2447C55.9164 65.52 60.97 64.1659 63.2453 60.225C63.7009 59.4358 63.4305 58.4267 62.6413 57.9711C61.8521 57.5154 60.843 57.7858 60.3874 58.575L60.2349 58.8222C58.8074 60.9928 55.9037 61.7021 53.6255 60.3868C51.263 59.0228 50.4497 55.9875 51.8137 53.625C53.1778 51.2623 56.2129 50.4491 58.5755 51.8132C59.3647 52.2688 60.3738 51.9984 60.8295 51.2092Z" fill="#E1000F"/>
<path d="M79.3289 88.2931C79.0322 89.1548 79.4902 90.0937 80.3518 90.3904C83.7942 91.5757 87.5556 89.7413 88.741 86.2988C89.9263 82.8564 88.0916 79.0949 84.6493 77.9096C81.2069 76.7243 77.4454 78.5589 76.2601 82.0013C75.9634 82.8629 76.4214 83.8019 77.283 84.0985C78.1447 84.3952 79.0836 83.9373 79.3803 83.0756L79.4689 82.8462C80.1432 81.2761 81.934 80.4648 83.5749 81.0298C85.294 81.6217 86.2127 83.5053 85.6208 85.2244C85.0288 86.9436 83.1454 87.8622 81.4262 87.2702C80.5645 86.9735 79.6256 87.4315 79.3289 88.2931Z" fill="#E1000F"/>
<path d="M51.5507 85.8C50.7045 85.8 50.0071 85.163 49.9118 84.3424L49.9007 84.15L49.9014 82.4699L49.8937 82.1788C49.8109 80.8571 48.9984 79.6885 47.7376 79.1189L47.4606 79.0062L46.6283 78.6561L46.2014 78.4657C44.9425 77.883 43.4539 78.0987 42.3963 78.9999L42.1766 79.2034L40.8409 80.5314L40.5816 80.7382C39.5991 81.4144 38.2862 81.3504 37.3688 80.5943L37.1785 80.4216L32.6562 75.8757L32.45 75.6162C31.7769 74.635 31.8383 73.325 32.5897 72.4058L32.7612 72.215L33.9456 71.0267L34.1552 70.8047C35.0807 69.7458 35.2996 68.2174 34.6941 66.9107C34.5646 66.6248 34.4377 66.3284 34.32 66.037L34.0459 65.3426C33.5237 64.162 32.3658 63.3544 31.0608 63.254L30.7791 63.2435L28.9292 63.2381L28.6314 63.2085C27.429 63.0118 26.5185 62.0229 26.4094 60.8199L26.3984 60.5766L26.4037 54.158L26.4331 53.8606C26.6287 52.6577 27.6154 51.744 28.8188 51.6345L29.0623 51.6234L30.7369 51.6242L31.0266 51.6165C32.3405 51.5336 33.5042 50.7197 34.0721 49.4542L34.1845 49.1762L34.5336 48.3415L34.7253 47.9092C35.3126 46.6421 35.0903 45.1304 34.172 44.0634L33.979 43.8561L32.663 42.5243L32.457 42.2645C31.7854 41.2826 31.8488 39.9725 32.6007 39.0551L32.7723 38.8648L37.3052 34.3282L37.5644 34.1212C38.5462 33.4445 39.8587 33.507 40.7783 34.2625L40.9691 34.435L42.1507 35.6199L42.3729 35.8301C43.4297 36.7564 44.9429 36.9753 46.237 36.3752C46.526 36.2434 46.823 36.1155 47.1143 35.997L47.8075 35.7217C48.9836 35.1983 49.7899 34.035 49.8901 32.7223L49.9007 32.4389L49.906 30.5846L49.9353 30.2871C50.1309 29.0843 51.1176 28.1705 52.3211 28.061L52.5645 28.05L58.9648 28.0554L59.2626 28.085C60.465 28.2817 61.3755 29.2706 61.4846 30.4736L61.4956 30.7169L61.4948 32.394L61.503 32.6872C61.5888 34.0172 62.4077 35.1874 63.6834 35.7556L63.9636 35.868L64.7767 36.2112L65.2026 36.4012C66.4616 36.9839 67.9502 36.7682 69.0077 35.867L69.2275 35.6635L70.5632 34.3355L70.8225 34.1287C71.805 33.4525 73.1179 33.5165 74.0353 34.2726L74.2255 34.4453L78.7498 38.9936L78.9553 39.2533C79.6245 40.2339 79.5598 41.5427 78.8094 42.4588L78.6381 42.6488L77.4507 43.8403L77.2411 44.0622C76.3155 45.1211 76.0966 46.6495 76.7021 47.9562C76.8317 48.2421 76.9585 48.5385 77.0763 48.8299L77.3504 49.5243C77.8725 50.7049 79.0305 51.5125 80.3355 51.6129L80.6172 51.6234L82.4671 51.6288L82.6315 51.6421C83.5398 51.7156 84.2166 52.5115 84.1431 53.4198C84.0748 54.2633 83.3837 54.907 82.558 54.9358L82.3653 54.9314L82.334 54.9234L80.6202 54.9234C78.0159 54.9282 75.6372 53.458 74.4634 51.1309L74.3109 50.8083L74.1725 50.4639C74.0736 50.2039 73.9687 49.9442 73.8623 49.6952L73.7022 49.331C72.6064 46.9666 72.9381 44.1957 74.5555 42.1368L74.7953 41.8476L75.0779 41.5473L75.8621 40.7616L72.3344 37.224L71.5655 37.9924C69.6128 39.9568 66.6833 40.5546 64.164 39.5463L63.8379 39.4057L63.4639 39.2386L62.7687 38.9427C60.2898 38.0592 58.5437 35.8418 58.2397 33.2068L58.2073 32.845L58.1956 32.4456L58.1956 31.35H53.201L53.2007 32.4359C53.2054 35.0439 51.741 37.4276 49.4199 38.6053L49.0981 38.7584L48.7545 38.8972C48.4947 38.9966 48.2358 39.1019 47.985 39.2098L47.6158 39.3733C45.2579 40.4669 42.4992 40.1329 40.4439 38.5133L40.1552 38.2732L39.8529 37.9878L39.0803 37.2141L35.5493 40.755L36.3116 41.5217C38.2808 43.4794 38.8809 46.4259 37.8717 48.9452L37.731 49.2713L37.5647 49.6457L37.2594 50.3713C36.3692 52.8429 34.1591 54.5818 31.5391 54.8807L31.1793 54.9125L30.7858 54.9234L29.6984 54.9236V59.9445L30.7761 59.9435C33.3804 59.9387 35.759 61.4089 36.9328 63.736L37.0853 64.0586L37.2237 64.403C37.3226 64.663 37.4275 64.9227 37.5339 65.1717L37.6941 65.5359C38.7898 67.9003 38.4582 70.6712 36.8408 72.7302L36.601 73.0193L36.3183 73.3196L35.5394 74.1048L39.0704 77.6457L39.8386 76.8745C41.7913 74.9101 44.7208 74.3123 47.2399 75.3205L47.939 75.6278L48.662 75.9338C51.1277 76.8273 52.8604 79.0429 53.1581 81.6667L53.1898 82.0269L53.201 82.5H59.4028L59.4038 81.5864L59.4303 81.3259C59.6088 80.2312 60.5046 79.3999 61.5979 79.294L61.835 79.2825L63.1233 79.2833L63.3359 79.2779C64.203 79.2234 64.9731 78.6961 65.3694 77.8549L65.742 76.965L65.8934 76.6247C66.2774 75.7987 66.1433 74.8141 65.5593 74.1016L65.3889 73.9144L64.3447 72.8588L64.1645 72.6308C63.5515 71.7375 63.606 70.5471 64.2851 69.7095L64.4529 69.5227L67.9949 65.9908L68.1034 65.9007C68.8046 65.3187 69.8448 65.4153 70.4268 66.1165C70.9641 66.7637 70.9231 67.6999 70.3621 68.2978L70.2111 68.4399L70.2154 68.4271L67.3934 71.2518L67.7179 71.5765C69.3427 73.1868 69.845 75.6067 69.0297 77.6817L68.7717 78.2724L68.5417 78.8161C67.8077 80.8477 65.9941 82.2803 63.8323 82.5424L63.4882 82.5739L63.172 82.5825L62.6991 82.584V85.719L63.1639 85.7176C65.3086 85.7137 67.2693 86.9128 68.2543 88.8251L68.4016 89.1328L68.5117 89.4061C68.5866 89.6024 68.666 89.7985 68.7461 89.9854L68.8662 90.2579C69.7695 92.2009 69.5049 94.4759 68.1818 96.1831L67.9515 96.4623L67.7245 96.7025L67.3851 97.0429L70.2046 99.8622C70.7994 100.457 70.8452 101.393 70.3419 102.04L70.2046 102.196C69.6098 102.79 68.6739 102.836 68.0266 102.333L67.8712 102.196L64.3398 98.6543L64.1593 98.4266C63.5451 97.5339 63.5977 96.3437 64.2764 95.5043L64.4442 95.3171L65.3552 94.4059L65.509 94.2439C66.1292 93.5365 66.276 92.5144 65.8678 91.6361C65.7652 91.4102 65.6647 91.1761 65.5722 90.948L65.3636 90.4202C65.0207 89.6473 64.2633 89.1113 63.4036 89.0287L63.1668 89.0176L61.7023 89.0122L61.4418 88.9857C60.3471 88.8072 59.5159 87.9115 59.4099 86.8182L59.3985 86.581L59.3993 85.8H51.5507Z" fill="#000091"/>
<path d="M87.1739 98.3942C85.2617 99.3792 84.0626 101.34 84.0664 103.485L84.0678 103.95H80.9328L80.9314 103.476L80.9228 103.16L80.8913 102.816C80.6292 100.654 79.1966 98.8408 77.165 98.1068L76.6213 97.8768L76.3391 97.751L76.1588 97.683C75.3701 97.437 74.5049 97.8157 74.1613 98.589C73.7914 99.4218 74.1666 100.397 74.9994 100.767L75.3139 100.907L76.2038 101.279C77.045 101.675 77.5723 102.446 77.6268 103.313L77.6322 103.525L77.6314 104.814L77.6429 105.051C77.7488 106.144 78.5801 107.04 79.6748 107.218L79.9352 107.245L84.9299 107.25L85.1671 107.239C86.2604 107.133 87.1561 106.301 87.3346 105.207L87.3611 104.946L87.3664 103.482L87.3776 103.245C87.4602 102.385 87.9962 101.628 88.769 101.285L89.2978 101.076C89.5265 100.983 89.7616 100.882 89.9905 100.778C90.8649 100.374 91.884 100.521 92.5944 101.142L92.7571 101.295L93.6684 102.207L93.8545 102.374C94.6894 103.051 95.8772 103.108 96.7683 102.5L96.9964 102.321L100.546 98.7706L100.714 98.5842C101.391 97.7481 101.446 96.5577 100.833 95.6644L100.653 95.4364L99.6085 94.3808L99.4381 94.1936C98.8541 93.4811 98.72 92.4965 99.104 91.6704C99.2155 91.4255 99.3177 91.1885 99.4124 90.9566L99.5395 90.6364L99.6358 90.4078C100.025 89.5953 100.798 89.0698 101.654 89.021L101.864 89.0171L103.162 89.0175L103.4 89.0061C104.493 88.9001 105.389 88.0689 105.567 86.9742L105.594 86.7137L105.599 81.719L105.588 81.4819C105.482 80.3886 104.65 79.4929 103.556 79.3143L103.295 79.2879L101.831 79.2825L101.594 79.2714C100.734 79.1887 99.9767 78.6527 99.6338 77.8799L99.4252 77.352C99.3327 77.1239 99.2323 76.8899 99.1296 76.664C98.7214 75.7857 98.8682 74.7635 99.4884 74.0561L99.6422 73.8941L100.556 72.9806L100.723 72.7941C101.401 71.9577 101.456 70.7686 100.846 69.8762L100.666 69.6482L97.1323 66.1044L96.9456 65.9366C96.1079 65.2575 94.9176 65.2031 94.0242 65.8161L93.7962 65.9962L92.7347 67.0465L92.5482 67.2152C91.8386 67.7934 90.8568 67.9262 90.026 67.5429L89.6908 67.3938L88.8127 67.0268C87.9594 66.6303 87.4279 65.8591 87.3714 64.986L87.3656 64.7718L87.3664 63.4865L87.355 63.2494C87.249 62.1561 86.4178 61.2604 85.3231 61.0818L85.0626 61.0553L80.0679 61.05L79.8308 61.0614C78.7375 61.1674 77.8418 61.9986 77.6632 63.0933L77.6368 63.3538L77.6314 64.8184L77.6203 65.0551C77.5377 65.9148 77.0017 66.6722 76.2288 67.0151L75.7001 67.2241C75.4713 67.3169 75.2363 67.4178 75.0074 67.5219C74.1779 67.899 73.8111 68.8773 74.1883 69.7068C74.5654 70.5364 75.5436 70.9031 76.3732 70.526C76.6539 70.3984 76.9476 70.2758 77.2429 70.1632L77.5161 70.0532L77.8239 69.9058C79.7362 68.9208 80.9353 66.9601 80.9314 64.8154L80.9328 64.35H84.0678L84.0664 64.8236L84.0757 65.1443L84.106 65.4735C84.3681 67.6514 85.8138 69.4737 87.8614 70.2013L88.3814 70.4227L88.6646 70.5489L88.9737 70.6804C91.0512 71.4912 93.4596 70.9932 95.0691 69.3789L95.4049 69.0443L97.6159 71.2553L97.273 71.5976L97.0459 71.8378L96.8156 72.1169C95.4925 73.8242 95.228 76.0991 96.1312 78.0422L96.3705 78.6008L96.5958 79.1672L96.7431 79.475C97.7281 81.3872 99.6888 82.5864 101.834 82.5825L102.3 82.5825V85.7175H101.825L101.522 85.7241L101.195 85.7518C99.0312 85.996 97.2012 87.4265 96.4563 89.4608L96.351 89.7246L96.2343 90.0019L96.1059 90.2917L95.9729 90.602C95.1524 92.6885 95.6547 95.1084 97.2795 96.7187L97.606 97.0464L95.395 99.2657L95.0514 98.924L94.8084 98.6951L94.5292 98.4655C92.8224 97.1464 90.5553 96.8813 88.6151 97.7784L88.1941 97.9616L87.4817 98.2469L87.1739 98.3942Z" fill="#000091"/>
<path d="M97.3485 54.45C96.4373 54.45 95.6985 53.7113 95.6985 52.8C95.6985 51.9538 96.3355 51.2564 97.1561 51.1611L97.3485 51.15H103.949C104.86 51.15 105.599 51.8887 105.599 52.8C105.599 53.6462 104.962 54.3436 104.141 54.4389L103.949 54.45H97.3485Z" fill="#000091"/>
<path d="M92.3985 52.8C92.3985 51.8902 91.6583 51.15 90.7485 51.15C89.8387 51.15 89.0985 51.8902 89.0985 52.8C89.0985 53.7099 89.8387 54.45 90.7485 54.45C91.6583 54.45 92.3985 53.7099 92.3985 52.8Z" fill="#000091"/>
</svg>
