<svg width="120" height="120" viewBox="0 0 120 120" fill="none" xmlns="http://www.w3.org/2000/svg">
<path fill-rule="evenodd" clip-rule="evenodd" d="M102 19.4995C101.173 19.4995 100.5 18.8266 100.5 17.9995C100.5 17.1723 101.173 16.4995 102 16.4995C102.827 16.4995 103.5 17.1723 103.5 17.9995C103.5 18.8266 102.827 19.4995 102 19.4995Z" fill="#ECECFE"/>
<path fill-rule="evenodd" clip-rule="evenodd" d="M61.5 114C60.6729 114 60 113.327 60 112.5C60 111.672 60.6729 111 61.5 111C62.3271 111 63 111.672 63 112.5C63 113.327 62.3271 114 61.5 114Z" fill="#ECECFE"/>
<path fill-rule="evenodd" clip-rule="evenodd" d="M22.5 14.9995C21.6729 14.9995 21 14.3266 21 13.4995C21 12.6723 21.6729 11.9995 22.5 11.9995C23.3271 11.9995 24 12.6723 24 13.4995C24 14.3266 23.3271 14.9995 22.5 14.9995Z" fill="#ECECFE"/>
<path d="M24 32.9995C23.1729 32.9995 22.5 32.3266 22.5 31.4995C22.5 30.6723 23.1729 29.9995 24 29.9995C24.8271 29.9995 25.5 30.6723 25.5 31.4995C25.5 32.3266 24.8271 32.9995 24 32.9995Z" fill="#E1000F"/>
<path d="M30 32.9995C29.1729 32.9995 28.5 32.3266 28.5 31.4995C28.5 30.6723 29.1729 29.9995 30 29.9995C30.8271 29.9995 31.5 30.6723 31.5 31.4995C31.5 32.3266 30.8271 32.9995 30 32.9995Z" fill="#E1000F"/>
<path d="M34.5 31.4995C34.5 32.3266 35.1729 32.9995 36 32.9995C36.8271 32.9995 37.5 32.3266 37.5 31.4995C37.5 30.6723 36.8271 29.9995 36 29.9995C35.1729 29.9995 34.5 30.6723 34.5 31.4995Z" fill="#E1000F"/>
<path d="M93 29.9995C93.8284 29.9995 94.5 30.6711 94.5 31.4995C94.5 32.2688 93.9209 32.9028 93.1749 32.9894L93 32.9995H48C47.1716 32.9995 46.5 32.3279 46.5 31.4995C46.5 30.7303 47.0791 30.0963 47.8251 30.0096L48 29.9995H93Z" fill="#E1000F"/>
<path fill-rule="evenodd" clip-rule="evenodd" d="M76.9386 74.5594C76.6574 75.1468 76.5 75.8048 76.5 76.4995C76.5 78.9848 78.5147 80.9995 81 80.9995C83.4853 80.9995 85.5 78.9848 85.5 76.4995C85.5 75.5768 85.2223 74.719 84.7459 74.005L91.2 65.3995L91.3035 65.242C91.6733 64.5947 91.5118 63.7583 90.9 63.2995C90.2373 62.8025 89.2971 62.9368 88.8 63.5995L82.3463 72.2044C81.9212 72.0713 81.469 71.9995 81 71.9995C80.3053 71.9995 79.6473 72.1569 79.0599 72.4381L76.0607 69.4389L75.9193 69.3141C75.3309 68.8565 74.4801 68.8981 73.9393 69.4389C73.3536 70.0246 73.3536 70.9744 73.9393 71.5602L76.9386 74.5594ZM81 74.9995C81.8284 74.9995 82.5 75.6711 82.5 76.4995C82.5 77.3279 81.8284 77.9995 81 77.9995C80.1716 77.9995 79.5 77.3279 79.5 76.4995C79.5 75.6711 80.1716 74.9995 81 74.9995Z" fill="#E1000F"/>
<path d="M100.49 25.3246C100.403 24.5786 99.7693 23.9995 99 23.9995H18L17.8251 24.0096C17.0791 24.0963 16.5 24.7303 16.5 25.4995V94.4995L16.5101 94.6744C16.5967 95.4205 17.2307 95.9995 18 95.9995H54L54.1749 95.9894C54.9209 95.9028 55.5 95.2688 55.5 94.4995L55.4899 94.3246C55.4033 93.5786 54.7693 92.9995 54 92.9995H19.5V38.9995H75L75.1749 38.9894C75.9209 38.9028 76.5 38.2688 76.5 37.4995C76.5 36.6711 75.8284 35.9995 75 35.9995H19.5V26.9995H97.5V49.4995L97.5101 49.6744C97.5967 50.4205 98.2307 50.9995 99 50.9995C99.8284 50.9995 100.5 50.3279 100.5 49.4995V25.4995L100.49 25.3246Z" fill="#000091"/>
<path d="M106.5 76.4995C106.5 62.4163 95.0833 50.9995 81 50.9995C66.9167 50.9995 55.5 62.4163 55.5 76.4995C55.5 89.4309 65.1255 100.114 77.6026 101.775L76.9393 102.439L76.8146 102.58C76.357 103.169 76.3986 104.019 76.9393 104.56C77.5251 105.146 78.4749 105.146 79.0607 104.56L82.0607 101.56C82.1048 101.516 82.1461 101.469 82.1845 101.42C82.2681 101.312 82.336 101.195 82.3863 101.073C82.4502 100.919 82.4892 100.752 82.498 100.577C82.4993 100.551 82.5 100.525 82.5 100.5C82.5 100.297 82.46 100.105 82.3875 99.9286C82.3143 99.7504 82.2054 99.5835 82.0607 99.4389L79.0607 96.4389L78.9193 96.3141C78.3309 95.8565 77.4801 95.8981 76.9393 96.4389L76.8146 96.5802C76.357 97.1686 76.3986 98.0194 76.9393 98.5602L77.0294 98.6503C66.4967 96.7749 58.5 87.5711 58.5 76.4995C58.5 64.0731 68.5736 53.9995 81 53.9995C93.4264 53.9995 103.5 64.0731 103.5 76.4995C103.5 81.748 101.699 86.7163 98.4533 90.7004C97.93 91.3427 98.0265 92.2875 98.6688 92.8108C99.311 93.334 100.256 93.2376 100.779 92.5953C104.457 88.0807 106.5 82.4447 106.5 76.4995Z" fill="#000091"/>
<path d="M96.9393 96.4051C97.5856 95.8869 97.6895 94.9429 97.1713 94.2965C96.6532 93.6502 95.7091 93.5463 95.0628 94.0645C94.178 94.7738 93.241 95.4157 92.26 95.9839C91.5432 96.3991 91.2987 97.3168 91.7139 98.0337C92.1291 98.7505 93.0469 98.9951 93.7637 98.5798C94.8754 97.9359 95.937 97.2087 96.9393 96.4051Z" fill="#000091"/>
<path d="M84.3338 60.3368C83.2444 60.1131 82.129 59.9995 81 59.9995C71.8873 59.9995 64.5 67.3868 64.5 76.4995C64.5 85.6122 71.8873 92.9995 81 92.9995C90.1127 92.9995 97.5 85.6122 97.5 76.4995C97.5 74.2256 97.0389 72.0137 96.1566 69.9686C95.8285 69.2079 94.9458 68.8573 94.1851 69.1855C93.4245 69.5136 93.0739 70.3963 93.402 71.157C94.1232 72.8285 94.5 74.6363 94.5 76.4995C94.5 83.9554 88.4558 89.9995 81 89.9995C73.5442 89.9995 67.5 83.9554 67.5 76.4995C67.5 69.0437 73.5442 62.9995 81 62.9995C81.9261 62.9995 82.8393 63.0925 83.7305 63.2755C84.542 63.4421 85.3349 62.9193 85.5015 62.1078C85.6681 61.2963 85.1453 60.5034 84.3338 60.3368Z" fill="#000091"/>
<path d="M57 47.9995C57.8284 47.9995 58.5 48.6711 58.5 49.4995C58.5 50.2688 57.9209 50.9028 57.1749 50.9894L57 50.9995H30C29.1716 50.9995 28.5 50.3279 28.5 49.4995C28.5 48.7303 29.0791 48.0963 29.8251 48.0096L30 47.9995H57Z" fill="#000091"/>
<path d="M52.5 58.4995C52.5 57.6711 51.8284 56.9995 51 56.9995H30L29.8251 57.0096C29.0791 57.0963 28.5 57.7303 28.5 58.4995C28.5 59.3279 29.1716 59.9995 30 59.9995H51L51.1749 59.9894C51.9209 59.9028 52.5 59.2688 52.5 58.4995Z" fill="#000091"/>
<path d="M48 65.9995C48.8284 65.9995 49.5 66.6711 49.5 67.4995C49.5 68.2688 48.9209 68.9028 48.1749 68.9894L48 68.9995H30C29.1716 68.9995 28.5 68.3279 28.5 67.4995C28.5 66.7303 29.0791 66.0963 29.8251 66.0096L30 65.9995H48Z" fill="#000091"/>
</svg>
