<svg width="142" height="143" viewBox="0 0 142 143" fill="none" xmlns="http://www.w3.org/2000/svg">
<path d="M96.0374 72.4807C96.6571 71.2413 98.3653 71.1761 99.0996 72.285L99.2126 72.4807L120.513 115.081C121.072 116.199 120.331 117.504 119.129 117.638L118.925 117.65H111.825C110.845 117.65 110.05 116.855 110.05 115.875C110.05 114.964 110.735 114.214 111.618 114.111L111.825 114.1H116.051L97.625 77.2434L79.197 114.1H104.725C105.635 114.1 106.386 114.785 106.488 115.668L106.5 115.875C106.5 116.785 105.815 117.535 104.932 117.638L104.725 117.65H76.325C75.075 117.65 74.2389 116.403 74.6561 115.269L74.7374 115.081L96.0374 72.4807Z" fill="#6A6AF4"/>
<path d="M97.625 89.2495C98.6053 89.2495 99.4 90.0442 99.4 91.0245V101.675C99.4 102.655 98.6053 103.45 97.625 103.45C96.6447 103.45 95.85 102.655 95.85 101.675V91.0245C95.85 90.0442 96.6447 89.2495 97.625 89.2495Z" fill="#6A6AF4"/>
<path d="M99.4 108.775C99.4 107.794 98.6053 107 97.625 107C96.6447 107 95.85 107.794 95.85 108.775C95.85 109.755 96.6447 110.55 97.625 110.55C98.6053 110.55 99.4 109.755 99.4 108.775Z" fill="#6A6AF4"/>
<path d="M120.688 34.0175C120.586 33.1347 119.835 32.4495 118.925 32.4495H23.075L22.868 32.4614C21.9853 32.5639 21.3 33.3142 21.3 34.2245V115.874L21.312 116.081C21.4145 116.964 22.1648 117.649 23.075 117.649H65.675L65.882 117.638C66.7648 117.535 67.45 116.785 67.45 115.874L67.4381 115.667C67.3356 114.785 66.5853 114.099 65.675 114.099H24.85V50.1995H90.525L90.732 50.1875C91.6148 50.085 92.3 49.3347 92.3 48.4245C92.3 47.4442 91.5053 46.6495 90.525 46.6495H24.85V35.9995H117.15V46.6495H101.175L100.968 46.6614C100.085 46.7639 99.4 47.5142 99.4 48.4245C99.4 49.4048 100.195 50.1995 101.175 50.1995H117.15V94.5745L117.162 94.7815C117.265 95.6642 118.015 96.3495 118.925 96.3495C119.905 96.3495 120.7 95.5548 120.7 94.5745V34.2245L120.688 34.0175Z" fill="#000091"/>
<path d="M30.175 43.0995C29.1963 43.0995 28.4 42.3032 28.4 41.3245C28.4 40.3456 29.1963 39.5495 30.175 39.5495C31.1538 39.5495 31.95 40.3456 31.95 41.3245C31.95 42.3032 31.1538 43.0995 30.175 43.0995Z" fill="#000091"/>
<path d="M35.5 41.3245C35.5 42.3032 36.2963 43.0995 37.275 43.0995C38.2538 43.0995 39.05 42.3032 39.05 41.3245C39.05 40.3456 38.2538 39.5495 37.275 39.5495C36.2963 39.5495 35.5 40.3456 35.5 41.3245Z" fill="#000091"/>
<path d="M44.375 43.0995C43.3963 43.0995 42.6 42.3032 42.6 41.3245C42.6 40.3456 43.3963 39.5495 44.375 39.5495C45.3538 39.5495 46.15 40.3456 46.15 41.3245C46.15 42.3032 45.3538 43.0995 44.375 43.0995Z" fill="#000091"/>
<path d="M111.825 39.5495C112.805 39.5495 113.6 40.3442 113.6 41.3245C113.6 42.2347 112.915 42.985 112.032 43.0875L111.825 43.0995H58.575C57.5947 43.0995 56.8 42.3048 56.8 41.3245C56.8 40.4142 57.4853 39.6639 58.368 39.5614L58.575 39.5495H111.825Z" fill="#000091"/>
<path d="M81.65 62.6245C81.65 61.6442 80.8553 60.8495 79.875 60.8495H37.275L37.068 60.8614C36.1853 60.9639 35.5 61.7142 35.5 62.6245C35.5 63.6048 36.2947 64.3995 37.275 64.3995H79.875L80.0821 64.3875C80.9648 64.285 81.65 63.5347 81.65 62.6245Z" fill="#000091"/>
<path d="M72.775 71.4995C73.7553 71.4995 74.55 72.2942 74.55 73.2745C74.55 74.1847 73.8648 74.935 72.982 75.0375L72.775 75.0495H37.275C36.2947 75.0495 35.5 74.2548 35.5 73.2745C35.5 72.3642 36.1853 71.6139 37.068 71.5114L37.275 71.4995H72.775Z" fill="#000091"/>
<path d="M63.9 83.9245C63.9 82.9442 63.1054 82.1495 62.125 82.1495H37.275L37.068 82.1614C36.1853 82.2639 35.5 83.0142 35.5 83.9245C35.5 84.9048 36.2947 85.6995 37.275 85.6995H62.125L62.332 85.6875C63.2148 85.585 63.9 84.8347 63.9 83.9245Z" fill="#000091"/>
</svg>
