<svg width="188" height="44" viewBox="0 0 188 44" fill="none" xmlns="http://www.w3.org/2000/svg">
<rect x="0.5" y="0.5" width="186.287" height="43" rx="21.5" fill="white"/>
<rect x="0.5" y="0.5" width="186.287" height="43" rx="21.5" stroke="#000091"/>
<path d="M40.0986 21.809C40.5348 21.809 40.8885 22.1626 40.8885 22.5988C40.8885 23.0039 40.5836 23.3378 40.1907 23.3834L40.0986 23.3887H33.2276C32.7914 23.3887 32.4378 23.0351 32.4378 22.5988C32.4378 22.1938 32.7427 21.8599 33.1355 21.8143L33.2276 21.809H40.0986Z" fill="#000091"/>
<path d="M37.729 27.3469C37.729 26.9107 37.3753 26.557 36.9391 26.557H25.8807L25.7886 26.5623C25.3957 26.608 25.0908 26.9418 25.0908 27.3469C25.0908 27.7831 25.4445 28.1368 25.8807 28.1368H36.9391L37.0312 28.1315C37.424 28.0859 37.729 27.752 37.729 27.3469Z" fill="#000091"/>
<path d="M37.729 17.807C37.729 17.3707 37.3753 17.0171 36.9391 17.0171H33.2276L33.1355 17.0224C32.7427 17.068 32.4378 17.4019 32.4378 17.807C32.4378 18.2432 32.7914 18.5969 33.2276 18.5969H36.9391L37.0312 18.5915C37.424 18.5459 37.729 18.2121 37.729 17.807Z" fill="#000091"/>
<path d="M40.0986 21.809C40.5348 21.809 40.8885 22.1626 40.8885 22.5988C40.8885 23.0039 40.5836 23.3378 40.1907 23.3834L40.0986 23.3887H33.2276C32.7914 23.3887 32.4378 23.0351 32.4378 22.5988C32.4378 22.1938 32.7427 21.8599 33.1355 21.8143L33.2276 21.809H40.0986Z" stroke="#000091" stroke-width="0.734695"/>
<path d="M37.729 27.3469C37.729 26.9107 37.3753 26.557 36.9391 26.557H25.8807L25.7886 26.5623C25.3957 26.608 25.0908 26.9418 25.0908 27.3469C25.0908 27.7831 25.4445 28.1368 25.8807 28.1368H36.9391L37.0312 28.1315C37.424 28.0859 37.729 27.752 37.729 27.3469Z" stroke="#000091" stroke-width="0.734695"/>
<path d="M37.729 17.807C37.729 17.3707 37.3753 17.0171 36.9391 17.0171H33.2276L33.1355 17.0224C32.7427 17.068 32.4378 17.4019 32.4378 17.807C32.4378 18.2432 32.7914 18.5969 33.2276 18.5969H36.9391L37.0312 18.5915C37.424 18.5459 37.729 18.2121 37.729 17.807Z" stroke="#000091" stroke-width="0.734695"/>
<path d="M26.9046 15.3003C25.3959 15.3003 24.1729 16.5234 24.1729 18.0321C24.1729 21.4291 25.5506 23.4957 28.2705 23.4957C29.0249 23.4957 29.6364 22.8841 29.6364 22.1298C29.6364 21.3754 29.0249 20.7639 28.2705 20.7639L28.142 20.7593C27.979 20.7472 27.8324 20.7109 27.7021 20.6456C28.8218 20.3044 29.6364 19.2634 29.6364 18.0321C29.6364 16.5234 28.4134 15.3003 26.9046 15.3003Z" fill="#E1000F"/>
<path d="M51.0992 29V17.8H57.6272V19.688H53.3712V22.344H56.9872V24.232H53.3712V29H51.0992ZM61.2673 29.24C59.6513 29.24 58.5473 28.312 58.5473 26.824C58.5473 25.608 59.4913 24.696 61.2193 24.408L63.6833 23.992V23.784C63.6833 22.936 63.0433 22.392 62.1153 22.392C61.3313 22.392 60.7233 22.76 60.2913 23.352L58.8033 22.216C59.5233 21.224 60.7073 20.616 62.1793 20.616C64.5153 20.616 65.7153 22.008 65.7153 23.784V29H63.6833V28.216C63.1713 28.84 62.2113 29.24 61.2673 29.24ZM60.5633 26.728C60.5633 27.272 60.9953 27.624 61.6833 27.624C62.6113 27.624 63.2833 27.192 63.6833 26.552V25.416L61.7633 25.736C60.9153 25.88 60.5633 26.232 60.5633 26.728ZM69.0662 19.528C68.3462 19.528 67.7382 18.92 67.7382 18.2C67.7382 17.48 68.3462 16.872 69.0662 16.872C69.7862 16.872 70.3782 17.48 70.3782 18.2C70.3782 18.92 69.7862 19.528 69.0662 19.528ZM68.0422 29V20.936H70.0742V29H68.0422ZM72.5109 29V20.936H74.5429V21.736C75.0709 21.192 75.7589 20.776 76.6709 20.776C76.9429 20.776 77.1829 20.824 77.3749 20.888V22.888C77.1189 22.824 76.8469 22.776 76.4789 22.776C75.4869 22.776 74.8469 23.32 74.5429 23.832V29H72.5109ZM86.0912 27.688C85.3392 28.696 84.0912 29.32 82.5712 29.32C79.7072 29.32 78.0912 27.32 78.0912 24.968C78.0912 22.584 79.5952 20.616 82.2352 20.616C84.4752 20.616 85.9472 22.136 85.9472 24.248C85.9472 24.696 85.8832 25.112 85.8192 25.384H80.1712C80.3632 26.888 81.2912 27.496 82.5552 27.496C83.4352 27.496 84.2032 27.112 84.6352 26.536L86.0912 27.688ZM82.1872 22.28C81.1472 22.28 80.4592 22.856 80.2352 23.912H83.9472C83.9152 23.096 83.3232 22.28 82.1872 22.28ZM97.5573 25.512V20.936H99.6053V25.416C99.6053 27.832 98.1973 29.32 95.8293 29.32C93.4613 29.32 92.0693 27.832 92.0693 25.416V20.936H94.1173V25.512C94.1173 26.68 94.7253 27.4 95.8453 27.4C96.9493 27.4 97.5573 26.68 97.5573 25.512ZM101.855 29V20.936H103.887V21.576C104.447 21.032 105.199 20.616 106.271 20.616C108.015 20.616 109.407 21.816 109.407 24.2V29H107.359V24.28C107.359 23.208 106.751 22.536 105.759 22.536C104.735 22.536 104.191 23.224 103.887 23.736V29H101.855ZM116.027 29V20.936H118.059V21.736C118.587 21.192 119.275 20.776 120.187 20.776C120.459 20.776 120.699 20.824 120.891 20.888V22.888C120.635 22.824 120.363 22.776 119.995 22.776C119.003 22.776 118.363 23.32 118.059 23.832V29H116.027ZM129.607 27.688C128.855 28.696 127.607 29.32 126.087 29.32C123.223 29.32 121.607 27.32 121.607 24.968C121.607 22.584 123.111 20.616 125.751 20.616C127.991 20.616 129.463 22.136 129.463 24.248C129.463 24.696 129.399 25.112 129.335 25.384H123.687C123.879 26.888 124.807 27.496 126.071 27.496C126.951 27.496 127.719 27.112 128.151 26.536L129.607 27.688ZM125.703 22.28C124.663 22.28 123.975 22.856 123.751 23.912H127.463C127.431 23.096 126.839 22.28 125.703 22.28ZM131.945 26.056V22.76H130.441V20.936H131.945V18.92H133.993V20.936H136.457V22.76H133.993V26.056C133.993 26.952 134.473 27.304 135.273 27.304C135.833 27.304 136.201 27.24 136.473 27.128V28.904C136.073 29.08 135.593 29.16 134.921 29.16C132.905 29.16 131.945 28.024 131.945 26.056ZM141.96 20.616C144.584 20.616 146.376 22.552 146.376 24.968C146.376 27.384 144.584 29.32 141.96 29.32C139.336 29.32 137.544 27.384 137.544 24.968C137.544 22.552 139.336 20.616 141.96 20.616ZM141.992 27.4C143.288 27.4 144.264 26.36 144.264 24.968C144.264 23.56 143.288 22.536 141.992 22.536C140.648 22.536 139.656 23.56 139.656 24.968C139.656 26.376 140.648 27.4 141.992 27.4ZM153.542 25.512V20.936H155.59V25.416C155.59 27.832 154.182 29.32 151.814 29.32C149.446 29.32 148.054 27.832 148.054 25.416V20.936H150.102V25.512C150.102 26.68 150.71 27.4 151.83 27.4C152.934 27.4 153.542 26.68 153.542 25.512ZM157.839 29V20.936H159.871V21.736C160.399 21.192 161.087 20.776 161.999 20.776C162.271 20.776 162.511 20.824 162.703 20.888V22.888C162.447 22.824 162.175 22.776 161.807 22.776C160.815 22.776 160.175 23.32 159.871 23.832V29H157.839Z" fill="#000091"/>
</svg>
