<svg width="158" height="44" viewBox="0 0 158 44" fill="none" xmlns="http://www.w3.org/2000/svg">
<rect x="0.5" y="0.5" width="156.287" height="43" rx="21.5" stroke="#8585F6"/>
<path d="M32.0986 21.809C32.5348 21.809 32.8885 22.1626 32.8885 22.5988C32.8885 23.0039 32.5836 23.3378 32.1907 23.3834L32.0986 23.3887H25.2276C24.7914 23.3887 24.4378 23.0351 24.4378 22.5988C24.4378 22.1938 24.7427 21.8599 25.1355 21.8143L25.2276 21.809H32.0986Z" fill="#E1000F"/>
<path d="M29.729 27.3469C29.729 26.9107 29.3753 26.557 28.9391 26.557H17.8807L17.7886 26.5623C17.3957 26.608 17.0908 26.9418 17.0908 27.3469C17.0908 27.7831 17.4445 28.1368 17.8807 28.1368H28.9391L29.0312 28.1315C29.424 28.0859 29.729 27.752 29.729 27.3469Z" fill="#E1000F"/>
<path d="M29.729 17.807C29.729 17.3707 29.3753 17.0171 28.9391 17.0171H25.2276L25.1355 17.0224C24.7427 17.068 24.4378 17.4019 24.4378 17.807C24.4378 18.2432 24.7914 18.5969 25.2276 18.5969H28.9391L29.0312 18.5915C29.424 18.5459 29.729 18.2121 29.729 17.807Z" fill="#E1000F"/>
<path d="M32.0986 21.809C32.5348 21.809 32.8885 22.1626 32.8885 22.5988C32.8885 23.0039 32.5836 23.3378 32.1907 23.3834L32.0986 23.3887H25.2276C24.7914 23.3887 24.4378 23.0351 24.4378 22.5988C24.4378 22.1938 24.7427 21.8599 25.1355 21.8143L25.2276 21.809H32.0986Z" stroke="#E1000F" stroke-width="0.734695"/>
<path d="M29.729 27.3469C29.729 26.9107 29.3753 26.557 28.9391 26.557H17.8807L17.7886 26.5623C17.3957 26.608 17.0908 26.9418 17.0908 27.3469C17.0908 27.7831 17.4445 28.1368 17.8807 28.1368H28.9391L29.0312 28.1315C29.424 28.0859 29.729 27.752 29.729 27.3469Z" stroke="#E1000F" stroke-width="0.734695"/>
<path d="M29.729 17.807C29.729 17.3707 29.3753 17.0171 28.9391 17.0171H25.2276L25.1355 17.0224C24.7427 17.068 24.4378 17.4019 24.4378 17.807C24.4378 18.2432 24.7914 18.5969 25.2276 18.5969H28.9391L29.0312 18.5915C29.424 18.5459 29.729 18.2121 29.729 17.807Z" stroke="#E1000F" stroke-width="0.734695"/>
<path d="M18.9046 15.3003C17.3959 15.3003 16.1729 16.5234 16.1729 18.0321C16.1729 21.4291 17.5506 23.4957 20.2705 23.4957C21.0249 23.4957 21.6364 22.8841 21.6364 22.1298C21.6364 21.3754 21.0249 20.7639 20.2705 20.7639L20.142 20.7593C19.979 20.7472 19.8324 20.7109 19.7021 20.6456C20.8218 20.3044 21.6364 19.2634 21.6364 18.0321C21.6364 16.5234 20.4134 15.3003 18.9046 15.3003Z" fill="#8585F6"/>
<path d="M42.9977 28V18.2H48.7097V19.852H44.9857V22.176H48.1497V23.828H44.9857V28H42.9977ZM51.8948 28.21C50.4808 28.21 49.5148 27.398 49.5148 26.096C49.5148 25.032 50.3408 24.234 51.8528 23.982L54.0088 23.618V23.436C54.0088 22.694 53.4488 22.218 52.6368 22.218C51.9508 22.218 51.4188 22.54 51.0408 23.058L49.7388 22.064C50.3688 21.196 51.4048 20.664 52.6928 20.664C54.7368 20.664 55.7868 21.882 55.7868 23.436V28H54.0088V27.314C53.5608 27.86 52.7208 28.21 51.8948 28.21ZM51.2788 26.012C51.2788 26.488 51.6568 26.796 52.2588 26.796C53.0708 26.796 53.6588 26.418 54.0088 25.858V24.864L52.3288 25.144C51.5868 25.27 51.2788 25.578 51.2788 26.012ZM58.7188 19.712C58.0888 19.712 57.5568 19.18 57.5568 18.55C57.5568 17.92 58.0888 17.388 58.7188 17.388C59.3488 17.388 59.8668 17.92 59.8668 18.55C59.8668 19.18 59.3488 19.712 58.7188 19.712ZM57.8228 28V20.944H59.6008V28H57.8228ZM61.7329 28V20.944H63.5109V21.644C63.9729 21.168 64.5749 20.804 65.3729 20.804C65.6109 20.804 65.8209 20.846 65.9889 20.902V22.652C65.7649 22.596 65.5269 22.554 65.2049 22.554C64.3369 22.554 63.7769 23.03 63.5109 23.478V28H61.7329ZM73.6157 26.852C72.9577 27.734 71.8657 28.28 70.5357 28.28C68.0297 28.28 66.6157 26.53 66.6157 24.472C66.6157 22.386 67.9317 20.664 70.2417 20.664C72.2017 20.664 73.4897 21.994 73.4897 23.842C73.4897 24.234 73.4337 24.598 73.3777 24.836H68.4357C68.6037 26.152 69.4157 26.684 70.5217 26.684C71.2917 26.684 71.9637 26.348 72.3417 25.844L73.6157 26.852ZM70.1997 22.12C69.2897 22.12 68.6877 22.624 68.4917 23.548H71.7397C71.7117 22.834 71.1937 22.12 70.1997 22.12ZM83.6485 24.948V20.944H85.4405V24.864C85.4405 26.978 84.2085 28.28 82.1365 28.28C80.0645 28.28 78.8465 26.978 78.8465 24.864V20.944H80.6385V24.948C80.6385 25.97 81.1705 26.6 82.1505 26.6C83.1165 26.6 83.6485 25.97 83.6485 24.948ZM87.4087 28V20.944H89.1867V21.504C89.6767 21.028 90.3347 20.664 91.2727 20.664C92.7987 20.664 94.0167 21.714 94.0167 23.8V28H92.2247V23.87C92.2247 22.932 91.6927 22.344 90.8247 22.344C89.9287 22.344 89.4527 22.946 89.1867 23.394V28H87.4087ZM99.8091 28V20.944H101.587V21.644C102.049 21.168 102.651 20.804 103.449 20.804C103.687 20.804 103.897 20.846 104.065 20.902V22.652C103.841 22.596 103.603 22.554 103.281 22.554C102.413 22.554 101.853 23.03 101.587 23.478V28H99.8091ZM111.692 26.852C111.034 27.734 109.942 28.28 108.612 28.28C106.106 28.28 104.692 26.53 104.692 24.472C104.692 22.386 106.008 20.664 108.318 20.664C110.278 20.664 111.566 21.994 111.566 23.842C111.566 24.234 111.51 24.598 111.454 24.836H106.512C106.68 26.152 107.492 26.684 108.598 26.684C109.368 26.684 110.04 26.348 110.418 25.844L111.692 26.852ZM108.276 22.12C107.366 22.12 106.764 22.624 106.568 23.548H109.816C109.788 22.834 109.27 22.12 108.276 22.12ZM113.738 25.424V22.54H112.422V20.944H113.738V19.18H115.53V20.944H117.686V22.54H115.53V25.424C115.53 26.208 115.95 26.516 116.65 26.516C117.14 26.516 117.462 26.46 117.7 26.362V27.916C117.35 28.07 116.93 28.14 116.342 28.14C114.578 28.14 113.738 27.146 113.738 25.424ZM122.501 20.664C124.797 20.664 126.365 22.358 126.365 24.472C126.365 26.586 124.797 28.28 122.501 28.28C120.205 28.28 118.637 26.586 118.637 24.472C118.637 22.358 120.205 20.664 122.501 20.664ZM122.529 26.6C123.663 26.6 124.517 25.69 124.517 24.472C124.517 23.24 123.663 22.344 122.529 22.344C121.353 22.344 120.485 23.24 120.485 24.472C120.485 25.704 121.353 26.6 122.529 26.6ZM132.635 24.948V20.944H134.427V24.864C134.427 26.978 133.195 28.28 131.123 28.28C129.051 28.28 127.833 26.978 127.833 24.864V20.944H129.625V24.948C129.625 25.97 130.157 26.6 131.137 26.6C132.103 26.6 132.635 25.97 132.635 24.948ZM136.395 28V20.944H138.173V21.644C138.635 21.168 139.237 20.804 140.035 20.804C140.273 20.804 140.483 20.846 140.651 20.902V22.652C140.427 22.596 140.189 22.554 139.867 22.554C138.999 22.554 138.439 23.03 138.173 23.478V28H136.395Z" fill="#8585F6"/>
</svg>
