<svg width="197" height="44" viewBox="0 0 197 44" fill="none" xmlns="http://www.w3.org/2000/svg">
<rect width="196.287" height="44" rx="22" fill="#000091"/>
<path d="M40.0986 21.809C40.5348 21.809 40.8885 22.1626 40.8885 22.5988C40.8885 23.0039 40.5836 23.3378 40.1907 23.3834L40.0986 23.3887H33.2276C32.7914 23.3887 32.4378 23.0351 32.4378 22.5988C32.4378 22.1938 32.7427 21.8599 33.1355 21.8143L33.2276 21.809H40.0986Z" fill="#CACAFB"/>
<path d="M37.729 27.3469C37.729 26.9107 37.3753 26.557 36.9391 26.557H25.8807L25.7886 26.5623C25.3957 26.608 25.0908 26.9418 25.0908 27.3469C25.0908 27.7831 25.4445 28.1368 25.8807 28.1368H36.9391L37.0312 28.1315C37.424 28.0859 37.729 27.752 37.729 27.3469Z" fill="#CACAFB"/>
<path d="M37.729 17.807C37.729 17.3707 37.3753 17.0171 36.9391 17.0171H33.2276L33.1355 17.0224C32.7427 17.068 32.4378 17.4019 32.4378 17.807C32.4378 18.2432 32.7914 18.5969 33.2276 18.5969H36.9391L37.0312 18.5915C37.424 18.5459 37.729 18.2121 37.729 17.807Z" fill="#CACAFB"/>
<path d="M40.0986 21.809C40.5348 21.809 40.8885 22.1626 40.8885 22.5988C40.8885 23.0039 40.5836 23.3378 40.1907 23.3834L40.0986 23.3887H33.2276C32.7914 23.3887 32.4378 23.0351 32.4378 22.5988C32.4378 22.1938 32.7427 21.8599 33.1355 21.8143L33.2276 21.809H40.0986Z" stroke="#CACAFB" stroke-width="0.734695"/>
<path d="M37.729 27.3469C37.729 26.9107 37.3753 26.557 36.9391 26.557H25.8807L25.7886 26.5623C25.3957 26.608 25.0908 26.9418 25.0908 27.3469C25.0908 27.7831 25.4445 28.1368 25.8807 28.1368H36.9391L37.0312 28.1315C37.424 28.0859 37.729 27.752 37.729 27.3469Z" stroke="#CACAFB" stroke-width="0.734695"/>
<path d="M37.729 17.807C37.729 17.3707 37.3753 17.0171 36.9391 17.0171H33.2276L33.1355 17.0224C32.7427 17.068 32.4378 17.4019 32.4378 17.807C32.4378 18.2432 32.7914 18.5969 33.2276 18.5969H36.9391L37.0312 18.5915C37.424 18.5459 37.729 18.2121 37.729 17.807Z" stroke="#CACAFB" stroke-width="0.734695"/>
<path d="M26.9046 15.3003C25.3959 15.3003 24.1729 16.5234 24.1729 18.0321C24.1729 21.4291 25.5506 23.4957 28.2705 23.4957C29.0249 23.4957 29.6364 22.8841 29.6364 22.1298C29.6364 21.3754 29.0249 20.7639 28.2705 20.7639L28.142 20.7593C27.979 20.7472 27.8324 20.7109 27.7021 20.6456C28.8218 20.3044 29.6364 19.2634 29.6364 18.0321C29.6364 16.5234 28.4134 15.3003 26.9046 15.3003Z" fill="white"/>
<path d="M57.7354 24.808V17.8H60.0074V24.616C60.0074 27.56 58.2794 29.32 55.4634 29.32C52.6634 29.32 50.9354 27.56 50.9354 24.616V17.8H53.2074V24.808C53.2074 26.312 54.0554 27.192 55.4794 27.192C56.8714 27.192 57.7354 26.312 57.7354 24.808ZM62.4484 29V20.936H64.4804V21.576C65.0404 21.032 65.7924 20.616 66.8644 20.616C68.6084 20.616 70.0004 21.816 70.0004 24.2V29H67.9524V24.28C67.9524 23.208 67.3444 22.536 66.3524 22.536C65.3284 22.536 64.7844 23.224 64.4804 23.736V29H62.4484ZM79.7318 27.688C78.9798 28.696 77.7318 29.32 76.2118 29.32C73.3478 29.32 71.7318 27.32 71.7318 24.968C71.7318 22.584 73.2358 20.616 75.8758 20.616C78.1158 20.616 79.5878 22.136 79.5878 24.248C79.5878 24.696 79.5238 25.112 79.4598 25.384H73.8118C74.0038 26.888 74.9318 27.496 76.1958 27.496C77.0758 27.496 77.8438 27.112 78.2758 26.536L79.7318 27.688ZM75.8278 22.28C74.7878 22.28 74.0998 22.856 73.8758 23.912H77.5878C77.5558 23.096 76.9638 22.28 75.8278 22.28ZM85.8859 29V20.936H87.9179V21.736C88.4459 21.192 89.1339 20.776 90.0459 20.776C90.3179 20.776 90.5579 20.824 90.7499 20.888V22.888C90.4939 22.824 90.2219 22.776 89.8539 22.776C88.8619 22.776 88.2219 23.32 87.9179 23.832V29H85.8859ZM99.4662 27.688C98.7142 28.696 97.4662 29.32 95.9462 29.32C93.0822 29.32 91.4662 27.32 91.4662 24.968C91.4662 22.584 92.9702 20.616 95.6102 20.616C97.8502 20.616 99.3222 22.136 99.3222 24.248C99.3222 24.696 99.2582 25.112 99.1942 25.384H93.5462C93.7382 26.888 94.6662 27.496 95.9302 27.496C96.8102 27.496 97.5782 27.112 98.0102 26.536L99.4662 27.688ZM95.5622 22.28C94.5222 22.28 93.8342 22.856 93.6102 23.912H97.3222C97.2902 23.096 96.6982 22.28 95.5622 22.28ZM101.308 29V20.936H103.34V21.544C103.884 21.016 104.572 20.616 105.564 20.616C106.588 20.616 107.484 21.064 108.012 21.928C108.588 21.224 109.356 20.616 110.716 20.616C112.38 20.616 113.692 21.768 113.692 24.04V29H111.644V24.12C111.644 23.144 111.116 22.536 110.204 22.536C109.324 22.536 108.844 23.144 108.524 23.688C108.54 23.8 108.54 23.912 108.54 24.04V29H106.492V24.12C106.492 23.144 105.964 22.536 105.052 22.536C104.124 22.536 103.644 23.224 103.34 23.736V29H101.308ZM118.283 29.24C116.667 29.24 115.563 28.312 115.563 26.824C115.563 25.608 116.507 24.696 118.235 24.408L120.699 23.992V23.784C120.699 22.936 120.059 22.392 119.131 22.392C118.347 22.392 117.739 22.76 117.307 23.352L115.819 22.216C116.539 21.224 117.723 20.616 119.195 20.616C121.531 20.616 122.731 22.008 122.731 23.784V29H120.699V28.216C120.187 28.84 119.227 29.24 118.283 29.24ZM117.579 26.728C117.579 27.272 118.011 27.624 118.699 27.624C119.627 27.624 120.299 27.192 120.699 26.552V25.416L118.779 25.736C117.931 25.88 117.579 26.232 117.579 26.728ZM125.058 29V20.936H127.09V21.736C127.618 21.192 128.306 20.776 129.218 20.776C129.49 20.776 129.73 20.824 129.922 20.888V22.888C129.666 22.824 129.394 22.776 129.026 22.776C128.034 22.776 127.394 23.32 127.09 23.832V29H125.058ZM130.638 24.968C130.638 22.616 132.174 20.616 134.734 20.616C135.822 20.616 136.606 20.968 137.23 21.592V20.936H139.278V32.936H137.23V28.344C136.606 28.968 135.822 29.32 134.734 29.32C132.174 29.32 130.638 27.32 130.638 24.968ZM132.75 24.968C132.75 26.376 133.63 27.4 135.006 27.4C135.95 27.4 136.734 26.984 137.23 26.248V23.688C136.686 22.936 135.918 22.536 135.006 22.536C133.63 22.536 132.75 23.56 132.75 24.968ZM147.026 25.512V20.936H149.074V25.416C149.074 27.832 147.666 29.32 145.298 29.32C142.93 29.32 141.538 27.832 141.538 25.416V20.936H143.586V25.512C143.586 26.68 144.194 27.4 145.314 27.4C146.418 27.4 147.026 26.68 147.026 25.512ZM158.747 27.688C157.995 28.696 156.747 29.32 155.227 29.32C152.363 29.32 150.747 27.32 150.747 24.968C150.747 22.584 152.251 20.616 154.891 20.616C157.131 20.616 158.603 22.136 158.603 24.248C158.603 24.696 158.539 25.112 158.475 25.384H152.827C153.019 26.888 153.947 27.496 155.211 27.496C156.091 27.496 156.859 27.112 157.291 26.536L158.747 27.688ZM154.843 22.28C153.803 22.28 153.115 22.856 152.891 23.912H156.603C156.571 23.096 155.979 22.28 154.843 22.28ZM166.47 25.4L166.214 22.76C168.07 22.568 169.286 22.168 169.286 20.808C169.286 19.976 168.646 19.4 167.814 19.4C166.966 19.4 166.438 19.848 165.846 20.728L164.102 19.656C164.998 18.232 166.214 17.48 167.91 17.48C169.798 17.48 171.494 18.776 171.494 20.808C171.494 22.68 170.07 23.88 168.086 24.216L167.974 25.4H166.47ZM167.238 29.192C166.47 29.192 165.83 28.552 165.83 27.8C165.83 27.048 166.47 26.408 167.238 26.408C167.974 26.408 168.63 27.048 168.63 27.8C168.63 28.552 167.974 29.192 167.238 29.192Z" fill="#F5F5FE"/>
</svg>
