<svg width="239" height="44" viewBox="0 0 239 44" fill="none" xmlns="http://www.w3.org/2000/svg">
<rect x="0.5" y="0.5" width="237.287" height="43" rx="21.5" fill="white"/>
<rect x="0.5" y="0.5" width="237.287" height="43" rx="21.5" stroke="#000091"/>
<path d="M40.0986 21.809C40.5348 21.809 40.8885 22.1626 40.8885 22.5988C40.8885 23.0039 40.5836 23.3378 40.1907 23.3834L40.0986 23.3887H33.2276C32.7914 23.3887 32.4378 23.0351 32.4378 22.5988C32.4378 22.1938 32.7427 21.8599 33.1355 21.8143L33.2276 21.809H40.0986Z" fill="#000091"/>
<path d="M37.729 27.3469C37.729 26.9107 37.3753 26.557 36.9391 26.557H25.8807L25.7886 26.5623C25.3957 26.608 25.0908 26.9418 25.0908 27.3469C25.0908 27.7831 25.4445 28.1368 25.8807 28.1368H36.9391L37.0312 28.1315C37.424 28.0859 37.729 27.752 37.729 27.3469Z" fill="#000091"/>
<path d="M37.729 17.807C37.729 17.3707 37.3753 17.0171 36.9391 17.0171H33.2276L33.1355 17.0224C32.7427 17.068 32.4378 17.4019 32.4378 17.807C32.4378 18.2432 32.7914 18.5969 33.2276 18.5969H36.9391L37.0312 18.5915C37.424 18.5459 37.729 18.2121 37.729 17.807Z" fill="#000091"/>
<path d="M40.0986 21.809C40.5348 21.809 40.8885 22.1626 40.8885 22.5988C40.8885 23.0039 40.5836 23.3378 40.1907 23.3834L40.0986 23.3887H33.2276C32.7914 23.3887 32.4378 23.0351 32.4378 22.5988C32.4378 22.1938 32.7427 21.8599 33.1355 21.8143L33.2276 21.809H40.0986Z" stroke="#000091" stroke-width="0.734695"/>
<path d="M37.729 27.3469C37.729 26.9107 37.3753 26.557 36.9391 26.557H25.8807L25.7886 26.5623C25.3957 26.608 25.0908 26.9418 25.0908 27.3469C25.0908 27.7831 25.4445 28.1368 25.8807 28.1368H36.9391L37.0312 28.1315C37.424 28.0859 37.729 27.752 37.729 27.3469Z" stroke="#000091" stroke-width="0.734695"/>
<path d="M37.729 17.807C37.729 17.3707 37.3753 17.0171 36.9391 17.0171H33.2276L33.1355 17.0224C32.7427 17.068 32.4378 17.4019 32.4378 17.807C32.4378 18.2432 32.7914 18.5969 33.2276 18.5969H36.9391L37.0312 18.5915C37.424 18.5459 37.729 18.2121 37.729 17.807Z" stroke="#000091" stroke-width="0.734695"/>
<path d="M26.9046 15.3003C25.3959 15.3003 24.1729 16.5234 24.1729 18.0321C24.1729 21.4291 25.5506 23.4957 28.2705 23.4957C29.0249 23.4957 29.6364 22.8841 29.6364 22.1298C29.6364 21.3754 29.0249 20.7639 28.2705 20.7639L28.142 20.7593C27.979 20.7472 27.8324 20.7109 27.7021 20.6456C28.8218 20.3044 29.6364 19.2634 29.6364 18.0321C29.6364 16.5234 28.4134 15.3003 26.9046 15.3003Z" fill="#E1000F"/>
<path d="M49.9271 27.448L51.5751 25.928C52.2471 26.792 53.1431 27.304 54.0551 27.304C54.9511 27.304 55.4951 26.824 55.4951 26.024C55.4951 23.96 50.4071 24.52 50.4071 20.728C50.4071 18.952 51.8791 17.48 54.0231 17.48C55.7031 17.48 56.9831 18.232 57.9431 19.368L56.2791 20.872C55.6231 20.024 54.8871 19.464 54.0391 19.464C53.2391 19.464 52.7111 19.976 52.7111 20.648C52.7111 22.68 57.7991 22.104 57.7991 25.944C57.7671 28.056 56.1351 29.32 54.0711 29.32C52.1831 29.32 50.9191 28.632 49.9271 27.448ZM60.9334 19.528C60.2134 19.528 59.6054 18.92 59.6054 18.2C59.6054 17.48 60.2134 16.872 60.9334 16.872C61.6534 16.872 62.2454 17.48 62.2454 18.2C62.2454 18.92 61.6534 19.528 60.9334 19.528ZM59.9094 29V20.936H61.9414V29H59.9094ZM63.5781 30.408C63.5781 29.608 63.9781 28.968 64.6981 28.44C64.3781 28.12 64.2021 27.688 64.2021 27.272C64.2021 26.632 64.4741 26.12 65.0821 25.672C64.3781 25.144 63.9941 24.344 63.9941 23.448C63.9941 21.88 65.2101 20.616 67.2261 20.616C67.8501 20.616 68.3941 20.728 68.8581 20.936H71.8021V22.664H70.3781C70.4581 22.92 70.4901 23.176 70.4901 23.448C70.4901 25.032 69.3061 26.312 67.2261 26.312C66.9541 26.312 66.6981 26.296 66.4581 26.248C66.2821 26.408 66.1861 26.584 66.1861 26.76C66.1861 27.08 66.3621 27.24 66.7301 27.24H68.7621C70.7941 27.24 71.8981 28.328 71.8981 29.832C71.8981 31.624 70.1861 33 67.6741 33C65.0981 33 63.5781 32.104 63.5781 30.408ZM67.2581 24.776C68.1061 24.776 68.6501 24.248 68.6501 23.448C68.6501 22.648 68.1061 22.136 67.2581 22.136C66.3781 22.136 65.8501 22.664 65.8501 23.448C65.8501 24.248 66.3781 24.776 67.2581 24.776ZM65.4981 30.12C65.4981 30.888 66.2341 31.368 67.6581 31.368C69.1301 31.368 69.8821 30.824 69.8821 30.024C69.8821 29.416 69.5141 28.984 68.5381 28.984H66.0421C65.7381 29.272 65.4981 29.624 65.4981 30.12ZM73.3 29V20.936H75.332V21.576C75.892 21.032 76.644 20.616 77.716 20.616C79.46 20.616 80.852 21.816 80.852 24.2V29H78.804V24.28C78.804 23.208 78.196 22.536 77.204 22.536C76.18 22.536 75.636 23.224 75.332 23.736V29H73.3ZM85.4314 29.24C83.8154 29.24 82.7114 28.312 82.7114 26.824C82.7114 25.608 83.6554 24.696 85.3834 24.408L87.8474 23.992V23.784C87.8474 22.936 87.2074 22.392 86.2794 22.392C85.4954 22.392 84.8874 22.76 84.4554 23.352L82.9674 22.216C83.6874 21.224 84.8714 20.616 86.3434 20.616C88.6794 20.616 89.8794 22.008 89.8794 23.784V29H87.8474V28.216C87.3354 28.84 86.3754 29.24 85.4314 29.24ZM84.7274 26.728C84.7274 27.272 85.1594 27.624 85.8474 27.624C86.7754 27.624 87.4474 27.192 87.8474 26.552V25.416L85.9274 25.736C85.0794 25.88 84.7274 26.232 84.7274 26.728ZM92.2062 29V17H94.2382V29H92.2062ZM104.099 27.688C103.347 28.696 102.099 29.32 100.579 29.32C97.715 29.32 96.099 27.32 96.099 24.968C96.099 22.584 97.603 20.616 100.243 20.616C102.483 20.616 103.955 22.136 103.955 24.248C103.955 24.696 103.891 25.112 103.827 25.384H98.179C98.371 26.888 99.299 27.496 100.563 27.496C101.443 27.496 102.211 27.112 102.643 26.536L104.099 27.688ZM100.195 22.28C99.155 22.28 98.467 22.856 98.243 23.912H101.955C101.923 23.096 101.331 22.28 100.195 22.28ZM105.941 29V20.936H107.973V21.736C108.501 21.192 109.189 20.776 110.101 20.776C110.373 20.776 110.613 20.824 110.805 20.888V22.888C110.549 22.824 110.277 22.776 109.909 22.776C108.917 22.776 108.277 23.32 107.973 23.832V29H105.941ZM122.065 25.512V20.936H124.113V25.416C124.113 27.832 122.705 29.32 120.337 29.32C117.969 29.32 116.577 27.832 116.577 25.416V20.936H118.625V25.512C118.625 26.68 119.233 27.4 120.353 27.4C121.457 27.4 122.065 26.68 122.065 25.512ZM126.362 29V20.936H128.394V21.576C128.954 21.032 129.706 20.616 130.778 20.616C132.522 20.616 133.914 21.816 133.914 24.2V29H131.866V24.28C131.866 23.208 131.258 22.536 130.266 22.536C129.242 22.536 128.698 23.224 128.394 23.736V29H126.362ZM140.534 32.936V20.936H142.566V21.592C143.19 20.968 143.974 20.616 145.078 20.616C147.638 20.616 149.174 22.616 149.174 24.968C149.174 27.32 147.638 29.32 145.078 29.32C143.974 29.32 143.19 28.968 142.566 28.344V32.936H140.534ZM144.79 22.536C143.846 22.536 143.078 22.952 142.566 23.704V26.232C143.11 27 143.862 27.4 144.79 27.4C146.166 27.4 147.062 26.376 147.062 24.968C147.062 23.56 146.166 22.536 144.79 22.536ZM151.034 29V20.936H153.066V21.736C153.594 21.192 154.282 20.776 155.194 20.776C155.466 20.776 155.706 20.824 155.898 20.888V22.888C155.642 22.824 155.37 22.776 155.002 22.776C154.01 22.776 153.37 23.32 153.066 23.832V29H151.034ZM161.031 20.616C163.655 20.616 165.447 22.552 165.447 24.968C165.447 27.384 163.655 29.32 161.031 29.32C158.407 29.32 156.615 27.384 156.615 24.968C156.615 22.552 158.407 20.616 161.031 20.616ZM161.063 27.4C162.359 27.4 163.335 26.36 163.335 24.968C163.335 23.56 162.359 22.536 161.063 22.536C159.719 22.536 158.727 23.56 158.727 24.968C158.727 26.376 159.719 27.4 161.063 27.4ZM175.94 24.968C175.94 27.32 174.404 29.32 171.844 29.32C170.74 29.32 169.956 28.968 169.332 28.344V29H167.3V17H169.332V21.592C169.956 20.968 170.74 20.616 171.844 20.616C174.404 20.616 175.94 22.616 175.94 24.968ZM171.556 22.536C170.612 22.536 169.828 22.952 169.332 23.688V26.248C169.876 27 170.644 27.4 171.556 27.4C172.932 27.4 173.828 26.376 173.828 24.968C173.828 23.56 172.932 22.536 171.556 22.536ZM177.8 29V17H179.832V29H177.8ZM184.845 19.656L182.925 17H185.133L186.781 19.656H184.845ZM189.693 27.688C188.941 28.696 187.693 29.32 186.173 29.32C183.309 29.32 181.693 27.32 181.693 24.968C181.693 22.584 183.197 20.616 185.837 20.616C188.077 20.616 189.549 22.136 189.549 24.248C189.549 24.696 189.485 25.112 189.421 25.384H183.773C183.965 26.888 184.893 27.496 186.157 27.496C187.037 27.496 187.805 27.112 188.237 26.536L189.693 27.688ZM185.789 22.28C184.749 22.28 184.061 22.856 183.837 23.912H187.549C187.517 23.096 186.925 22.28 185.789 22.28ZM191.534 29V20.936H193.566V21.544C194.11 21.016 194.798 20.616 195.79 20.616C196.814 20.616 197.71 21.064 198.238 21.928C198.814 21.224 199.582 20.616 200.942 20.616C202.606 20.616 203.918 21.768 203.918 24.04V29H201.87V24.12C201.87 23.144 201.342 22.536 200.43 22.536C199.55 22.536 199.07 23.144 198.75 23.688C198.766 23.8 198.766 23.912 198.766 24.04V29H196.718V24.12C196.718 23.144 196.19 22.536 195.278 22.536C194.35 22.536 193.87 23.224 193.566 23.736V29H191.534ZM213.661 27.688C212.909 28.696 211.661 29.32 210.141 29.32C207.277 29.32 205.661 27.32 205.661 24.968C205.661 22.584 207.165 20.616 209.805 20.616C212.045 20.616 213.517 22.136 213.517 24.248C213.517 24.696 213.453 25.112 213.389 25.384H207.741C207.933 26.888 208.861 27.496 210.125 27.496C211.005 27.496 211.773 27.112 212.205 26.536L213.661 27.688ZM209.757 22.28C208.717 22.28 208.029 22.856 207.805 23.912H211.517C211.485 23.096 210.893 22.28 209.757 22.28Z" fill="#000091"/>
</svg>
