<svg width="166" height="44" viewBox="0 0 166 44" fill="none" xmlns="http://www.w3.org/2000/svg">
<rect x="0.5" y="0.5" width="164.287" height="43" rx="21.5" fill="white"/>
<rect x="0.5" y="0.5" width="164.287" height="43" rx="21.5" stroke="#000091"/>
<path d="M32.0986 21.809C32.5348 21.809 32.8885 22.1626 32.8885 22.5988C32.8885 23.0039 32.5836 23.3378 32.1907 23.3834L32.0986 23.3887H25.2276C24.7914 23.3887 24.4378 23.0351 24.4378 22.5988C24.4378 22.1938 24.7427 21.8599 25.1355 21.8143L25.2276 21.809H32.0986Z" fill="#E1000F"/>
<path d="M29.729 27.3469C29.729 26.9107 29.3753 26.557 28.9391 26.557H17.8807L17.7886 26.5623C17.3957 26.608 17.0908 26.9418 17.0908 27.3469C17.0908 27.7831 17.4445 28.1368 17.8807 28.1368H28.9391L29.0312 28.1315C29.424 28.0859 29.729 27.752 29.729 27.3469Z" fill="#E1000F"/>
<path d="M29.729 17.807C29.729 17.3707 29.3753 17.0171 28.9391 17.0171H25.2276L25.1355 17.0224C24.7427 17.068 24.4378 17.4019 24.4378 17.807C24.4378 18.2432 24.7914 18.5969 25.2276 18.5969H28.9391L29.0312 18.5915C29.424 18.5459 29.729 18.2121 29.729 17.807Z" fill="#E1000F"/>
<path d="M32.0986 21.809C32.5348 21.809 32.8885 22.1626 32.8885 22.5988C32.8885 23.0039 32.5836 23.3378 32.1907 23.3834L32.0986 23.3887H25.2276C24.7914 23.3887 24.4378 23.0351 24.4378 22.5988C24.4378 22.1938 24.7427 21.8599 25.1355 21.8143L25.2276 21.809H32.0986Z" stroke="#E1000F" stroke-width="0.734695"/>
<path d="M29.729 27.3469C29.729 26.9107 29.3753 26.557 28.9391 26.557H17.8807L17.7886 26.5623C17.3957 26.608 17.0908 26.9418 17.0908 27.3469C17.0908 27.7831 17.4445 28.1368 17.8807 28.1368H28.9391L29.0312 28.1315C29.424 28.0859 29.729 27.752 29.729 27.3469Z" stroke="#E1000F" stroke-width="0.734695"/>
<path d="M29.729 17.807C29.729 17.3707 29.3753 17.0171 28.9391 17.0171H25.2276L25.1355 17.0224C24.7427 17.068 24.4378 17.4019 24.4378 17.807C24.4378 18.2432 24.7914 18.5969 25.2276 18.5969H28.9391L29.0312 18.5915C29.424 18.5459 29.729 18.2121 29.729 17.807Z" stroke="#E1000F" stroke-width="0.734695"/>
<path d="M18.9046 15.3003C17.3959 15.3003 16.1729 16.5234 16.1729 18.0321C16.1729 21.4291 17.5506 23.4957 20.2705 23.4957C21.0249 23.4957 21.6364 22.8841 21.6364 22.1298C21.6364 21.3754 21.0249 20.7639 20.2705 20.7639L20.142 20.7593C19.979 20.7472 19.8324 20.7109 19.7021 20.6456C20.8218 20.3044 21.6364 19.2634 21.6364 18.0321C21.6364 16.5234 20.4134 15.3003 18.9046 15.3003Z" fill="#000091"/>
<path d="M48.8669 24.332V18.2H50.8549V24.164C50.8549 26.74 49.3429 28.28 46.8789 28.28C44.4289 28.28 42.9169 26.74 42.9169 24.164V18.2H44.9049V24.332C44.9049 25.648 45.6469 26.418 46.8929 26.418C48.1109 26.418 48.8669 25.648 48.8669 24.332ZM52.9908 28V20.944H54.7688V21.504C55.2588 21.028 55.9168 20.664 56.8548 20.664C58.3808 20.664 59.5988 21.714 59.5988 23.8V28H57.8068V23.87C57.8068 22.932 57.2748 22.344 56.4068 22.344C55.5108 22.344 55.0348 22.946 54.7688 23.394V28H52.9908ZM68.1137 26.852C67.4557 27.734 66.3637 28.28 65.0337 28.28C62.5277 28.28 61.1137 26.53 61.1137 24.472C61.1137 22.386 62.4297 20.664 64.7397 20.664C66.6997 20.664 67.9877 21.994 67.9877 23.842C67.9877 24.234 67.9317 24.598 67.8757 24.836H62.9337C63.1017 26.152 63.9137 26.684 65.0197 26.684C65.7897 26.684 66.4617 26.348 66.8397 25.844L68.1137 26.852ZM64.6977 22.12C63.7877 22.12 63.1857 22.624 62.9897 23.548H66.2377C66.2097 22.834 65.6917 22.12 64.6977 22.12ZM73.4986 28V20.944H75.2766V21.644C75.7386 21.168 76.3406 20.804 77.1386 20.804C77.3766 20.804 77.5866 20.846 77.7546 20.902V22.652C77.5306 22.596 77.2926 22.554 76.9706 22.554C76.1026 22.554 75.5426 23.03 75.2766 23.478V28H73.4986ZM85.3813 26.852C84.7233 27.734 83.6313 28.28 82.3013 28.28C79.7953 28.28 78.3813 26.53 78.3813 24.472C78.3813 22.386 79.6973 20.664 82.0073 20.664C83.9673 20.664 85.2553 21.994 85.2553 23.842C85.2553 24.234 85.1993 24.598 85.1433 24.836H80.2013C80.3693 26.152 81.1813 26.684 82.2873 26.684C83.0573 26.684 83.7293 26.348 84.1073 25.844L85.3813 26.852ZM81.9653 22.12C81.0553 22.12 80.4533 22.624 80.2573 23.548H83.5053C83.4773 22.834 82.9593 22.12 81.9653 22.12ZM86.9927 28V20.944H88.7707V21.476C89.2467 21.014 89.8487 20.664 90.7167 20.664C91.6127 20.664 92.3967 21.056 92.8587 21.812C93.3627 21.196 94.0347 20.664 95.2247 20.664C96.6807 20.664 97.8287 21.672 97.8287 23.66V28H96.0367V23.73C96.0367 22.876 95.5747 22.344 94.7767 22.344C94.0067 22.344 93.5867 22.876 93.3067 23.352C93.3207 23.45 93.3207 23.548 93.3207 23.66V28H91.5287V23.73C91.5287 22.876 91.0667 22.344 90.2687 22.344C89.4567 22.344 89.0367 22.946 88.7707 23.394V28H86.9927ZM101.846 28.21C100.432 28.21 99.4659 27.398 99.4659 26.096C99.4659 25.032 100.292 24.234 101.804 23.982L103.96 23.618V23.436C103.96 22.694 103.4 22.218 102.588 22.218C101.902 22.218 101.37 22.54 100.992 23.058L99.6899 22.064C100.32 21.196 101.356 20.664 102.644 20.664C104.688 20.664 105.738 21.882 105.738 23.436V28H103.96V27.314C103.512 27.86 102.672 28.21 101.846 28.21ZM101.23 26.012C101.23 26.488 101.608 26.796 102.21 26.796C103.022 26.796 103.61 26.418 103.96 25.858V24.864L102.28 25.144C101.538 25.27 101.23 25.578 101.23 26.012ZM107.774 28V20.944H109.552V21.644C110.014 21.168 110.616 20.804 111.414 20.804C111.652 20.804 111.862 20.846 112.03 20.902V22.652C111.806 22.596 111.568 22.554 111.246 22.554C110.378 22.554 109.818 23.03 109.552 23.478V28H107.774ZM112.657 24.472C112.657 22.414 114.001 20.664 116.241 20.664C117.193 20.664 117.879 20.972 118.425 21.518V20.944H120.217V31.444H118.425V27.426C117.879 27.972 117.193 28.28 116.241 28.28C114.001 28.28 112.657 26.53 112.657 24.472ZM114.505 24.472C114.505 25.704 115.275 26.6 116.479 26.6C117.305 26.6 117.991 26.236 118.425 25.592V23.352C117.949 22.694 117.277 22.344 116.479 22.344C115.275 22.344 114.505 23.24 114.505 24.472ZM126.996 24.948V20.944H128.788V24.864C128.788 26.978 127.556 28.28 125.484 28.28C123.412 28.28 122.194 26.978 122.194 24.864V20.944H123.986V24.948C123.986 25.97 124.518 26.6 125.498 26.6C126.464 26.6 126.996 25.97 126.996 24.948ZM137.252 26.852C136.594 27.734 135.502 28.28 134.172 28.28C131.666 28.28 130.252 26.53 130.252 24.472C130.252 22.386 131.568 20.664 133.878 20.664C135.838 20.664 137.126 21.994 137.126 23.842C137.126 24.234 137.07 24.598 137.014 24.836H132.072C132.24 26.152 133.052 26.684 134.158 26.684C134.928 26.684 135.6 26.348 135.978 25.844L137.252 26.852ZM133.836 22.12C132.926 22.12 132.324 22.624 132.128 23.548H135.376C135.348 22.834 134.83 22.12 133.836 22.12ZM144.009 24.85L143.785 22.54C145.409 22.372 146.473 22.022 146.473 20.832C146.473 20.104 145.913 19.6 145.185 19.6C144.443 19.6 143.981 19.992 143.463 20.762L141.937 19.824C142.721 18.578 143.785 17.92 145.269 17.92C146.921 17.92 148.405 19.054 148.405 20.832C148.405 22.47 147.159 23.52 145.423 23.814L145.325 24.85H144.009ZM144.681 28.168C144.009 28.168 143.449 27.608 143.449 26.95C143.449 26.292 144.009 25.732 144.681 25.732C145.325 25.732 145.899 26.292 145.899 26.95C145.899 27.608 145.325 28.168 144.681 28.168Z" fill="#000091"/>
</svg>
