<svg width="203" height="44" viewBox="0 0 203 44" fill="none" xmlns="http://www.w3.org/2000/svg">
<rect x="0.5" y="0.5" width="201.287" height="43" rx="21.5" stroke="#8585F6"/>
<path d="M32.0986 21.809C32.5348 21.809 32.8885 22.1626 32.8885 22.5988C32.8885 23.0039 32.5836 23.3378 32.1907 23.3834L32.0986 23.3887H25.2276C24.7914 23.3887 24.4378 23.0351 24.4378 22.5988C24.4378 22.1938 24.7427 21.8599 25.1355 21.8143L25.2276 21.809H32.0986Z" fill="#E1000F"/>
<path d="M29.729 27.3469C29.729 26.9107 29.3753 26.557 28.9391 26.557H17.8807L17.7886 26.5623C17.3957 26.608 17.0908 26.9418 17.0908 27.3469C17.0908 27.7831 17.4445 28.1368 17.8807 28.1368H28.9391L29.0312 28.1315C29.424 28.0859 29.729 27.752 29.729 27.3469Z" fill="#E1000F"/>
<path d="M29.729 17.807C29.729 17.3707 29.3753 17.0171 28.9391 17.0171H25.2276L25.1355 17.0224C24.7427 17.068 24.4378 17.4019 24.4378 17.807C24.4378 18.2432 24.7914 18.5969 25.2276 18.5969H28.9391L29.0312 18.5915C29.424 18.5459 29.729 18.2121 29.729 17.807Z" fill="#E1000F"/>
<path d="M32.0986 21.809C32.5348 21.809 32.8885 22.1626 32.8885 22.5988C32.8885 23.0039 32.5836 23.3378 32.1907 23.3834L32.0986 23.3887H25.2276C24.7914 23.3887 24.4378 23.0351 24.4378 22.5988C24.4378 22.1938 24.7427 21.8599 25.1355 21.8143L25.2276 21.809H32.0986Z" stroke="#E1000F" stroke-width="0.734695"/>
<path d="M29.729 27.3469C29.729 26.9107 29.3753 26.557 28.9391 26.557H17.8807L17.7886 26.5623C17.3957 26.608 17.0908 26.9418 17.0908 27.3469C17.0908 27.7831 17.4445 28.1368 17.8807 28.1368H28.9391L29.0312 28.1315C29.424 28.0859 29.729 27.752 29.729 27.3469Z" stroke="#E1000F" stroke-width="0.734695"/>
<path d="M29.729 17.807C29.729 17.3707 29.3753 17.0171 28.9391 17.0171H25.2276L25.1355 17.0224C24.7427 17.068 24.4378 17.4019 24.4378 17.807C24.4378 18.2432 24.7914 18.5969 25.2276 18.5969H28.9391L29.0312 18.5915C29.424 18.5459 29.729 18.2121 29.729 17.807Z" stroke="#E1000F" stroke-width="0.734695"/>
<path d="M18.9046 15.3003C17.3959 15.3003 16.1729 16.5234 16.1729 18.0321C16.1729 21.4291 17.5506 23.4957 20.2705 23.4957C21.0249 23.4957 21.6364 22.8841 21.6364 22.1298C21.6364 21.3754 21.0249 20.7639 20.2705 20.7639L20.142 20.7593C19.979 20.7472 19.8324 20.7109 19.7021 20.6456C20.8218 20.3044 21.6364 19.2634 21.6364 18.0321C21.6364 16.5234 20.4134 15.3003 18.9046 15.3003Z" fill="#8585F6"/>
<path d="M42.1596 26.642L43.6016 25.312C44.1896 26.068 44.9736 26.516 45.7716 26.516C46.5556 26.516 47.0316 26.096 47.0316 25.396C47.0316 23.59 42.5796 24.08 42.5796 20.762C42.5796 19.208 43.8676 17.92 45.7436 17.92C47.2136 17.92 48.3336 18.578 49.1736 19.572L47.7176 20.888C47.1436 20.146 46.4996 19.656 45.7576 19.656C45.0576 19.656 44.5956 20.104 44.5956 20.692C44.5956 22.47 49.0476 21.966 49.0476 25.326C49.0196 27.174 47.5916 28.28 45.7856 28.28C44.1336 28.28 43.0276 27.678 42.1596 26.642ZM51.7901 19.712C51.1601 19.712 50.6281 19.18 50.6281 18.55C50.6281 17.92 51.1601 17.388 51.7901 17.388C52.4201 17.388 52.9381 17.92 52.9381 18.55C52.9381 19.18 52.4201 19.712 51.7901 19.712ZM50.8941 28V20.944H52.6721V28H50.8941ZM54.1042 29.232C54.1042 28.532 54.4542 27.972 55.0842 27.51C54.8042 27.23 54.6502 26.852 54.6502 26.488C54.6502 25.928 54.8882 25.48 55.4202 25.088C54.8042 24.626 54.4682 23.926 54.4682 23.142C54.4682 21.77 55.5322 20.664 57.2962 20.664C57.8422 20.664 58.3182 20.762 58.7242 20.944H61.3002V22.456H60.0542C60.1242 22.68 60.1522 22.904 60.1522 23.142C60.1522 24.528 59.1162 25.648 57.2962 25.648C57.0582 25.648 56.8342 25.634 56.6242 25.592C56.4702 25.732 56.3862 25.886 56.3862 26.04C56.3862 26.32 56.5402 26.46 56.8622 26.46H58.6402C60.4182 26.46 61.3842 27.412 61.3842 28.728C61.3842 30.296 59.8862 31.5 57.6882 31.5C55.4342 31.5 54.1042 30.716 54.1042 29.232ZM57.3242 24.304C58.0662 24.304 58.5422 23.842 58.5422 23.142C58.5422 22.442 58.0662 21.994 57.3242 21.994C56.5542 21.994 56.0922 22.456 56.0922 23.142C56.0922 23.842 56.5542 24.304 57.3242 24.304ZM55.7842 28.98C55.7842 29.652 56.4282 30.072 57.6742 30.072C58.9622 30.072 59.6202 29.596 59.6202 28.896C59.6202 28.364 59.2982 27.986 58.4442 27.986H56.2602C55.9942 28.238 55.7842 28.546 55.7842 28.98ZM62.6109 28V20.944H64.3889V21.504C64.8789 21.028 65.5369 20.664 66.4749 20.664C68.0009 20.664 69.2189 21.714 69.2189 23.8V28H67.4269V23.87C67.4269 22.932 66.8949 22.344 66.0269 22.344C65.1309 22.344 64.6549 22.946 64.3889 23.394V28H62.6109ZM73.2258 28.21C71.8118 28.21 70.8458 27.398 70.8458 26.096C70.8458 25.032 71.6718 24.234 73.1838 23.982L75.3398 23.618V23.436C75.3398 22.694 74.7798 22.218 73.9678 22.218C73.2818 22.218 72.7498 22.54 72.3718 23.058L71.0698 22.064C71.6998 21.196 72.7358 20.664 74.0238 20.664C76.0678 20.664 77.1178 21.882 77.1178 23.436V28H75.3398V27.314C74.8918 27.86 74.0518 28.21 73.2258 28.21ZM72.6098 26.012C72.6098 26.488 72.9878 26.796 73.5898 26.796C74.4018 26.796 74.9898 26.418 75.3398 25.858V24.864L73.6598 25.144C72.9178 25.27 72.6098 25.578 72.6098 26.012ZM79.1538 28V17.5H80.9318V28H79.1538ZM89.56 26.852C88.902 27.734 87.81 28.28 86.48 28.28C83.974 28.28 82.56 26.53 82.56 24.472C82.56 22.386 83.876 20.664 86.186 20.664C88.146 20.664 89.434 21.994 89.434 23.842C89.434 24.234 89.378 24.598 89.322 24.836H84.38C84.548 26.152 85.36 26.684 86.466 26.684C87.236 26.684 87.908 26.348 88.286 25.844L89.56 26.852ZM86.144 22.12C85.234 22.12 84.632 22.624 84.436 23.548H87.684C87.656 22.834 87.138 22.12 86.144 22.12ZM91.1714 28V20.944H92.9494V21.644C93.4114 21.168 94.0134 20.804 94.8114 20.804C95.0494 20.804 95.2594 20.846 95.4274 20.902V22.652C95.2034 22.596 94.9654 22.554 94.6434 22.554C93.7754 22.554 93.2154 23.03 92.9494 23.478V28H91.1714ZM105.28 24.948V20.944H107.072V24.864C107.072 26.978 105.84 28.28 103.768 28.28C101.696 28.28 100.478 26.978 100.478 24.864V20.944H102.27V24.948C102.27 25.97 102.802 26.6 103.782 26.6C104.748 26.6 105.28 25.97 105.28 24.948ZM109.041 28V20.944H110.819V21.504C111.309 21.028 111.967 20.664 112.905 20.664C114.431 20.664 115.649 21.714 115.649 23.8V28H113.857V23.87C113.857 22.932 113.325 22.344 112.457 22.344C111.561 22.344 111.085 22.946 110.819 23.394V28H109.041ZM121.441 31.444V20.944H123.219V21.518C123.765 20.972 124.451 20.664 125.417 20.664C127.657 20.664 129.001 22.414 129.001 24.472C129.001 26.53 127.657 28.28 125.417 28.28C124.451 28.28 123.765 27.972 123.219 27.426V31.444H121.441ZM125.165 22.344C124.339 22.344 123.667 22.708 123.219 23.366V25.578C123.695 26.25 124.353 26.6 125.165 26.6C126.369 26.6 127.153 25.704 127.153 24.472C127.153 23.24 126.369 22.344 125.165 22.344ZM130.628 28V20.944H132.406V21.644C132.868 21.168 133.47 20.804 134.268 20.804C134.506 20.804 134.716 20.846 134.884 20.902V22.652C134.66 22.596 134.422 22.554 134.1 22.554C133.232 22.554 132.672 23.03 132.406 23.478V28H130.628ZM139.375 20.664C141.671 20.664 143.239 22.358 143.239 24.472C143.239 26.586 141.671 28.28 139.375 28.28C137.079 28.28 135.511 26.586 135.511 24.472C135.511 22.358 137.079 20.664 139.375 20.664ZM139.403 26.6C140.537 26.6 141.391 25.69 141.391 24.472C141.391 23.24 140.537 22.344 139.403 22.344C138.227 22.344 137.359 23.24 137.359 24.472C137.359 25.704 138.227 26.6 139.403 26.6ZM152.421 24.472C152.421 26.53 151.077 28.28 148.837 28.28C147.871 28.28 147.185 27.972 146.639 27.426V28H144.861V17.5H146.639V21.518C147.185 20.972 147.871 20.664 148.837 20.664C151.077 20.664 152.421 22.414 152.421 24.472ZM148.585 22.344C147.759 22.344 147.073 22.708 146.639 23.352V25.592C147.115 26.25 147.787 26.6 148.585 26.6C149.789 26.6 150.573 25.704 150.573 24.472C150.573 23.24 149.789 22.344 148.585 22.344ZM154.048 28V17.5H155.826V28H154.048ZM160.213 19.824L158.533 17.5H160.465L161.907 19.824H160.213ZM164.455 26.852C163.797 27.734 162.705 28.28 161.375 28.28C158.869 28.28 157.455 26.53 157.455 24.472C157.455 22.386 158.771 20.664 161.081 20.664C163.041 20.664 164.329 21.994 164.329 23.842C164.329 24.234 164.273 24.598 164.217 24.836H159.275C159.443 26.152 160.255 26.684 161.361 26.684C162.131 26.684 162.803 26.348 163.181 25.844L164.455 26.852ZM161.039 22.12C160.129 22.12 159.527 22.624 159.331 23.548H162.579C162.551 22.834 162.033 22.12 161.039 22.12ZM166.066 28V20.944H167.844V21.476C168.32 21.014 168.922 20.664 169.79 20.664C170.686 20.664 171.47 21.056 171.932 21.812C172.436 21.196 173.108 20.664 174.298 20.664C175.754 20.664 176.902 21.672 176.902 23.66V28H175.11V23.73C175.11 22.876 174.648 22.344 173.85 22.344C173.08 22.344 172.66 22.876 172.38 23.352C172.394 23.45 172.394 23.548 172.394 23.66V28H170.602V23.73C170.602 22.876 170.14 22.344 169.342 22.344C168.53 22.344 168.11 22.946 167.844 23.394V28H166.066ZM185.427 26.852C184.769 27.734 183.677 28.28 182.347 28.28C179.841 28.28 178.427 26.53 178.427 24.472C178.427 22.386 179.743 20.664 182.053 20.664C184.013 20.664 185.301 21.994 185.301 23.842C185.301 24.234 185.245 24.598 185.189 24.836H180.247C180.415 26.152 181.227 26.684 182.333 26.684C183.103 26.684 183.775 26.348 184.153 25.844L185.427 26.852ZM182.011 22.12C181.101 22.12 180.499 22.624 180.303 23.548H183.551C183.523 22.834 183.005 22.12 182.011 22.12Z" fill="#8585F6"/>
</svg>
